<?xml version="1.0" encoding="utf-8"?>
<!-- Generator: Adobe Illustrator 19.0.0, SVG Export Plug-In . SVG Version: 6.00 Build 0)  -->
<svg version="1.1" id="Layer_1" xmlns="http://www.w3.org/2000/svg" xmlns:xlink="http://www.w3.org/1999/xlink" x="0px" y="0px"
	 viewBox="497 142.9 1279 282" style="enable-background:new 497 142.9 1279 282;" xml:space="preserve">
<style type="text/css">
	.st0{fill:#010101;}
	.st1{fill:none;stroke:#FFFFFF;stroke-width:2;stroke-miterlimit:10;}
</style>
<path id="XMLID_1_" class="st0" d="M497,163.7c43,0.5,80.2,15.6,126.6,22c46.4,6.4,183.5,23.7,183.5,23.7v216.5H497V163.7z"/>
<path id="XMLID_3_" class="st1" d="M497,162.7c43,0.5,80.2,15.6,126.6,22c46.4,6.4,183.5,23.7,183.5,23.7"/>
<path id="XMLID_2_" class="st0" d="M1776,195.7c0,0-46.3-0.2-76.9-4.5c-30.7-4.3-24.7-11.4-101.9,1.9c-77.2,13.3-62,5.8-145.2-14.2
	s-187.9-7.7-227.8-22.1c-40-14.4-54.3-9.9-103.3-12.7c-46.5-2.6-214.3,66.8-239.7,59.8c-25.4-7-32.8-3.9-55.4,0
	c-15.8,2.7-43.9,16.7-65.9,19c-37.3,4-94.7,5.4-113.4,9.5c-18.7,4.1-104.4,44-149.4,42.9v150.6h1279V195.7z"/>
<path id="XMLID_4_" class="st1" d="M1777,195.7c0,0-46.3-0.2-77-4.5s-24.7-11.4-102,1.9c-77.3,13.3-62,5.8-145.3-14.2
	c-83.3-20-188-7.7-228-22.1c-40-14.4-54.3-9.9-103.4-12.7c-46.5-2.6-214.5,66.8-239.9,59.8c-25.4-7-32.8-3.9-55.4,0
	c-15.8,2.7-43.9,16.7-66,19c-37.3,4-94.8,5.4-113.5,9.5c-18.7,4.1-104.5,44-149.5,42.9"/>
<path id="XMLID_5_" class="st1" d="M497,282.9c93-16.6,144-8,213-3s126-11.6,174-15s165.6,7.4,220.9,7.9
	c82.5,0.7,136.1,2,184.1,10.1s89-2.5,110-7.2c21-4.7,61-14.7,75-19.7s68,5,107,0s62-7,99-13s97-7.3,97-7.3"/>
</svg>
