<?xml version="1.0" encoding="utf-8"?>
<!-- Generator: Adobe Illustrator 19.0.0, SVG Export Plug-In . SVG Version: 6.00 Build 0)  -->
<svg version="1.1" id="Layer_1" xmlns="http://www.w3.org/2000/svg" xmlns:xlink="http://www.w3.org/1999/xlink" x="0px" y="0px"
	 viewBox="0 0 288.3 404.9" style="enable-background:new 0 0 288.3 404.9;" xml:space="preserve">
<style type="text/css">
	.st0{fill:#F3F4F5;}
	.st1{fill:none;stroke:#F3F4F5;stroke-width:0.4;stroke-miterlimit:10;}
</style>
<g>
	<path class="st0" d="M217,34.1l-0.4-0.4c0.1-0.1,7.5-8.7,8.7-10.3c1.1-1.5,2.7-0.9,3.4-0.4l4.3,2.6l-0.3,0.5l-4.3-2.6
		c-0.1-0.1-1.6-1.1-2.6,0.3C224.5,25.4,217.3,33.7,217,34.1z"/>
	<path class="st0" d="M188.8,39.6c-1.9-1.2-8.2-5-16.7-10.6c-7.7-5.1-15.3-19-15.9-22.9c-0.3-2,2-5.9,2-5.9l0.1-0.1l0.2,0
		c1.7,0.2,42.2,23.9,46.8,26.6l19.8,11.9l-0.3,0.5L205,27.1c-17.5-10.3-43.8-25.5-46.4-26.5c-0.7,1.3-2,4-1.8,5.4
		c0.6,3.7,8.2,17.7,15.6,22.6c10.3,6.8,17.2,10.9,17.3,11l-0.3,0.5C189.4,40,189.2,39.9,188.8,39.6z"/>
	<path class="st0" d="M187.6,42.5l0.2-0.3l1.8-2.9l0.2,0c1.4,0.2,11,6,22.5,13c2.1,1.3,4.1,2.5,5.6,3.4l-0.3,0.5
		c-1.5-0.9-3.5-2.1-5.6-3.4c-8-4.9-20.1-12.2-22.1-12.9l-1.4,2.3c1.1,0.6,6.2,3.3,27.7,16.2l-0.3,0.5
		c-25.6-15.4-27.8-16.3-27.9-16.3L187.6,42.5z"/>
	<path class="st0" d="M202.8,52.3c-15.3-9.2-15.2-9.8-15.1-10L188,42l0,0.3l0,0l0,0l0.2-0.1c0.1,0.2,1.3,1.5,14.9,9.6L202.8,52.3z
		 M188,42.3l0,0.3L188,42.3z"/>
	<path class="st0" d="M230.7,42.4c0.2-0.4,4.2-10.7,5.1-12.5c0.7-1.6-0.9-2.4-0.9-2.5l-4.3-2.6l0.3-0.5l4.3,2.6
		c0.7,0.4,1.9,1.5,1.2,3.2c-0.9,1.8-5,12.4-5.1,12.5L230.7,42.4z"/>
	<path class="st0" d="M239,69.9c-0.4-0.2-0.6-0.4-0.6-0.4l0.3-0.5c0.1,0,6.9,4.2,17.8,10.2c7.8,4.2,23.7,4.5,27.3,3.3
		c1.3-0.4,3.1-2.9,3.9-4.1c-2.1-1.8-27.8-17.9-45.1-28.6l-19.8-11.9l0.3-0.5l19.8,11.9c4.6,2.8,44.5,27.5,45.4,28.9l0.1,0.1
		l-0.1,0.1c-0.6,1-2.7,4-4.3,4.5c-3.7,1.3-19.6,1.1-27.7-3.3C247.2,74.7,240.9,71,239,69.9z"/>
	<path class="st0" d="M237.1,72.3l-0.3-0.3c-0.1-0.1-1.9-1.6-27.5-17l0.3-0.5c21.5,13,26.3,16.2,27.3,16.9l1.4-2.3
		c-1.5-1.5-13.6-8.7-21.7-13.5c-2.1-1.3-4.1-2.4-5.6-3.4l0.3-0.5c1.5,0.9,3.5,2.1,5.6,3.4c11.5,6.9,21.2,12.7,22,13.8L239,69
		L237.1,72.3z"/>
	<path class="st0" d="M221.4,63.5l0.3-0.5c13.4,8.1,15,8.5,15.2,8.5l0,0.3l0.3-0.2l-0.1,0.4C237,72.2,236.6,72.6,221.4,63.5z
		 M236.8,71.7c0,0.1-0.1,0.2,0,0.3l0.2-0.1L236.8,71.7z"/>
	<path class="st0" d="M213.5,58.6l0.2-0.3l-10.6-6.4c-0.1,0-0.1,0-0.2,0c-0.2,0.1-0.3,0.3-0.3,0.5c-0.1,1.4-0.7,3-1.7,4.7
		c-1.8,3-4.8,3.2-5.4,3.2c-0.2,0-0.3,0.1-0.4,0.2l-0.4,0.7c-0.1,0.1-0.1,0.3,0,0.4c0.3,0.7,1.8,4.3-0.2,7.6c-2,3.3-5.7,3.4-6.4,3.4
		c-0.2,0-0.3,0.1-0.4,0.2l-0.4,0.6c-0.1,0.1-0.1,0.3,0,0.4c0.3,0.7,1.7,4.5-0.3,7.8c-1.9,3.2-5.7,3.4-6.4,3.4
		c-0.2,0-0.3,0.1-0.4,0.2l-0.4,0.7c-0.1,0.1-0.1,0.3,0,0.4c0.2,0.5,2,5.5-1.7,11.7c-1.3,2.1-3.3,4.9-6.1,8.8
		c-6.1,8.5-15.3,21.2-28.1,42.5l-0.7,1.2c-5.1,8.5-8.5,15.5-11.7,22.3c-3,6.3-5.8,12.2-9.8,18.9c-3.4,5.6-9,7-9.6,7.1
		c-0.1,0-0.2,0.1-0.3,0.2l-0.5,0.8c-0.1,0.1-0.1,0.3,0,0.5c0.4,0.7,2,4.1-0.1,7.6c-1.8,3-5.8,3.3-6.5,3.3c-0.2,0-0.3,0.1-0.4,0.2
		l-0.4,0.7c-0.1,0.1-0.1,0.3,0,0.4c0.3,0.7,1.9,4.5,0,7.6c-1.9,3.1-5.8,3.3-6.5,3.3c-0.2,0-0.3,0.1-0.4,0.2l-0.4,0.7
		c-0.1,0.1-0.1,0.3,0,0.4c0.3,0.6,1.5,3.6-0.5,6.9c-1.5,2.5-3.4,3.2-3.4,3.2l0.2,0.5c0.1,0,2-0.8,3.7-3.5c2.1-3.5,0.9-6.7,0.6-7.4
		l0.4-0.6c0.9,0,4.9-0.3,7-3.6c2-3.3,0.5-7.3,0.1-8.1l0.4-0.6c0.9,0,5-0.4,7-3.6c2.2-3.7,0.5-7.3,0.1-8.1l0.4-0.7
		c0.7-0.1,6.5-1.5,10-7.3c4-6.7,6.9-12.6,9.9-18.9c3.2-6.8,6.5-13.8,11.7-22.2l0.7-1.2c12.8-21.2,22-34,28-42.4
		c2.8-3.9,4.8-6.7,6.1-8.8c3.7-6.2,2.2-11.1,1.8-12.1l0.4-0.6c0.9,0,4.8-0.3,6.8-3.7c2.1-3.4,0.7-7.4,0.4-8.2l0.3-0.6
		c0.9,0,4.7-0.2,6.8-3.7c2.1-3.5,0.6-7.3,0.3-8.1l0.4-0.6c0.7,0,3.9-0.3,5.8-3.5c1.1-1.8,1.7-3.4,1.8-4.9l0.1,0L213.5,58.6z"/>
	<path class="st0" d="M96.8,224.7L96.8,224.7L96.8,224.7z"/>
	<path class="st0" d="M111.6,200.1L111.6,200.1C111.6,200.1,111.6,200.1,111.6,200.1z"/>
	<path class="st0" d="M187.7,73.7L187.7,73.7L187.7,73.7z"/>
	<path class="st0" d="M217.1,75.2c0.2,0,0.3-0.1,0.4-0.2l0.4-0.7c0.1-0.1,0.1-0.3,0-0.5c-0.3-0.5-1.5-3.2,0.3-6.3
		c1.1-1.7,2.1-3,3.3-3.7c0.2-0.1,0.3-0.3,0.3-0.5c0-0.1,0-0.1,0-0.2l-10.6-6.4L211,57l10.3,6.2l0,0.1c-1.3,0.8-2.4,2.1-3.5,3.9
		c-1.9,3.2-0.7,6.1-0.4,6.8l-0.4,0.6c-0.9,0.1-4.9,0.5-7,4c-2.1,3.5-0.5,7-0.1,7.7l-0.3,0.6c-0.9,0.1-5,0.7-7.1,4.2
		c-2,3.4-0.5,7-0.1,7.8l-0.4,0.6c-1.1,0.1-6.2,1-9.9,7.2c-1.3,2.2-2.8,5.3-5,9.5c-4.6,9.3-11.6,23.4-24.4,44.6l-0.7,1.2
		c-5.1,8.5-9.7,14.7-14.2,20.7c-4.2,5.6-8.1,10.9-12.1,17.6c-3.5,5.8-2,11.6-1.8,12.2l-0.4,0.7c-0.9,0-4.9,0.2-7.1,3.9
		c-1.9,3.2-0.3,7,0.1,7.8l-0.4,0.6c-0.9,0.1-5.1,0.5-7.1,3.9c-2,3.3-0.4,7,0.1,7.8l-0.4,0.6c-0.8,0-4.2,0.5-6.3,4
		c-1.6,2.7-1.4,4.8-1.3,4.8l0.5-0.1c0,0-0.2-2,1.3-4.5c2-3.3,5.2-3.7,5.9-3.7c0.2,0,0.3-0.1,0.4-0.2l0.4-0.7c0.1-0.1,0.1-0.3,0-0.5
		c-0.3-0.7-2-4.2-0.1-7.3c1.9-3.2,5.9-3.6,6.7-3.6c0.2,0,0.3-0.1,0.4-0.2l0.4-0.7c0.1-0.1,0.1-0.3,0-0.4c-0.3-0.7-1.9-4.3-0.1-7.3
		c2.1-3.5,5.9-3.6,6.7-3.6c0.2,0,0.3-0.1,0.4-0.2l0.5-0.8c0.1-0.1,0.1-0.2,0.1-0.4c-0.2-0.6-1.6-6.2,1.8-11.8
		c4-6.7,7.9-11.9,12.1-17.5c4.5-6,9.1-12.2,14.2-20.7l0.7-1.2c12.8-21.2,19.8-35.3,24.4-44.7c2.1-4.3,3.6-7.4,4.9-9.5
		c3.7-6.2,8.9-6.9,9.5-7c0.1,0,0.3-0.1,0.4-0.2l0.4-0.7c0.1-0.1,0.1-0.3,0-0.5c-0.3-0.7-1.9-4.1,0-7.3c2-3.2,5.9-3.8,6.7-3.9
		c0.1,0,0.3-0.1,0.4-0.2l0.4-0.6c0.1-0.1,0.1-0.3,0-0.5c-0.3-0.6-1.9-3.9,0.1-7.2C212.5,75.6,216.4,75.2,217.1,75.2z"/>
	<path class="st0" d="M118.7,237.9C118.7,237.9,118.7,237.9,118.7,237.9S118.7,237.9,118.7,237.9z"/>
	<path class="st0" d="M126.2,225.6C126.2,225.6,126.2,225.6,126.2,225.6C126.2,225.6,126.2,225.6,126.2,225.6z"/>
	<path class="st1" d="M102.6,242.8"/>
	<path class="st0" d="M119.4,277.4l-0.1-0.1c-3.7-1.8-14.4-7.8-29.1-16.7c-14.7-8.8-25-15.5-28.4-17.9l-0.3-0.2
		c-0.1,0.2-0.2,0.3-0.3,0.4c1.1,0.9,3.3,2.4,7.5,5c5.6,3.6,13.1,8.3,21.2,13.1c8.1,4.9,15.7,9.3,21.5,12.6c4.2,2.4,6.5,3.6,7.8,4.2
		C119.3,277.7,119.3,277.5,119.4,277.4z"/>
	<path class="st0" d="M117.6,278.7c-3.7-1.8-14.2-7.7-28.5-16.3c-14.3-8.6-24.5-15.1-27.8-17.6l-0.2-0.1c0,0.1,0.1,0.2,0.1,0.3
		c0,0.2,0,0.3,0,0.5c1.2,0.9,3.3,2.3,6.8,4.6c5.5,3.5,12.9,8.1,20.8,12.9s15.4,9.1,21.1,12.3c3.7,2.1,5.9,3.3,7.3,3.9
		C117.3,279,117.4,278.8,117.6,278.7L117.6,278.7z"/>
	<path class="st0" d="M55.3,270.7l-0.5-0.3l1.8-3l0.2,0c0,0,3.4,0.1,6.2-4.5c0,0,1.5-2.9,0.8-5.7c-0.7-2.9-2.8-11.5-2.8-11.6
		c0,0-0.6-1.6,0-2.7c0.2-0.5,0.6-0.8,1.2-0.9c1.9-0.5,14.7-3.6,14.8-3.7c0.1,0,1-0.1,1.8,0.4c0.6,0.3,7.9,2.3,11.4-3.6
		c0.3-0.4,0.6-0.5,0.7-0.5l0.1,0.6c0,0-0.2,0-0.3,0.2c-3.6,5.9-11.1,4.4-12.2,3.8c-0.7-0.4-1.4-0.3-1.5-0.3
		c-0.1,0-12.9,3.1-14.8,3.6c-0.4,0.1-0.7,0.3-0.8,0.6c-0.4,0.9,0,2.2,0,2.2c0,0.1,2,8.8,2.8,11.7c0.8,3-0.8,6-0.8,6.1
		c-2.7,4.4-5.8,4.8-6.5,4.8L55.3,270.7z"/>
	<path class="st0" d="M98.1,296.3l-0.5-0.3l1.6-2.6c-0.3-0.7-1.4-3.6,1.2-8c0.1-0.1,2-2.9,5-3.6c2.9-0.7,11.5-3,11.6-3
		c0,0,1.5-0.2,2-1c0.2-0.3,0.3-0.6,0.2-1c-0.5-1.9-3.7-14.7-3.7-14.8l0,0c0,0-0.3-0.7-0.9-1.1c-1.1-0.7-5.9-6.6-2.4-12.5
		c0.1-0.2,0.1-0.3,0.1-0.3l0.5-0.2c0,0,0.2,0.4-0.1,0.8c-3.5,5.8,1.6,11.4,2.2,11.8c0.8,0.5,1.2,1.4,1.2,1.4
		c0,0.2,3.3,12.9,3.7,14.9c0.1,0.5,0,1-0.2,1.5c-0.7,1-2.3,1.2-2.4,1.2c-0.1,0-8.7,2.3-11.5,3c-2.8,0.7-4.6,3.3-4.7,3.4
		c-2.8,4.6-1.1,7.5-1.1,7.6l0.1,0.1L98.1,296.3z"/>
	<path class="st0" d="M82.9,288.3c-2.3-1.4-4.1-2.5-4.3-2.6l-4.7-2.8l0.3-0.5l4.7,2.8c5.8,3.6,17.2,10.4,19.1,10.8l-0.1,0.5
		C96.2,296.2,88,291.4,82.9,288.3z"/>
	<path class="st0" d="M69.1,280c-5.2-3.1-13.2-8.1-14.3-9.4l0.4-0.3c1.2,1.5,12.6,8.4,18.4,11.8l4.7,2.8l-0.3,0.5l-4.7-2.8
		C73.2,282.4,71.4,281.4,69.1,280z"/>
	<path class="st0" d="M99.6,293.6l-0.5-0.3c-3.7-1.9-11.3-6.3-21.2-12.3c-9.9-6-17.3-10.7-20.8-13l-0.6-0.4
		c-0.1,0.2-0.2,0.3-0.3,0.4c1,0.7,2.5,1.7,4.9,3.2c4.4,2.8,10.2,6.4,16.5,10.2c6.3,3.8,12.2,7.2,16.7,9.8c2.4,1.3,4,2.2,5.1,2.8
		C99.4,293.9,99.5,293.8,99.6,293.6z"/>
	<path class="st0" d="M115.7,261.4l-1.4-0.9c-2.9-1.5-9.3-5.1-17.9-10.3c-8.5-5.1-14.8-9.1-17.4-11l-1-0.6c-0.2,0.1-0.4,0.1-0.6,0.1
		c0.5,0.5,1.9,1.4,5.2,3.6c3.6,2.3,8.4,5.3,13.5,8.4c5.1,3.1,10,5.9,13.7,8c4.1,2.3,5.4,2.9,5.9,3
		C115.7,261.7,115.7,261.5,115.7,261.4z"/>
	<path class="st0" d="M101.4,242.3l-4.6-2.8c-6.5-4-6.3-4.5-6.1-4.7c0.1-0.3,0.5-0.3,2,0.3l0,0.5c-0.4-0.2-0.8-0.2-1-0.3
		c0.9,0.8,3.3,2.4,5.5,3.8l4.6,2.8L101.4,242.3z"/>
	<path class="st0" d="M100.9,242l0.3-0.5l4.6,2.8c2.3,1.3,4.9,2.7,6,3.2c-0.2-0.1-0.4-0.5-0.7-0.8l0.4-0.3c1.3,1.1,1.4,1.3,1.2,1.6
		c-0.2,0.2-0.4,0.6-7.1-3.3L100.9,242z"/>
	<g>
		
			<rect x="193.6" y="67.1" transform="matrix(0.8567 0.5159 -0.5159 0.8567 64.3082 -96.9242)" class="st0" width="25.9" height="0.3"/>
		
			<rect x="193.1" y="68" transform="matrix(0.8567 0.5159 -0.5159 0.8567 64.6949 -96.5156)" class="st0" width="25.9" height="0.3"/>
	</g>
	<g>
		
			<rect x="186.2" y="79.4" transform="matrix(0.8567 0.5159 -0.5159 0.8567 69.6188 -91.3112)" class="st0" width="25.9" height="0.3"/>
		
			<rect x="185.6" y="80.3" transform="matrix(0.8567 0.5159 -0.5159 0.8567 70.0054 -90.9025)" class="st0" width="25.9" height="0.3"/>
	</g>
	<g>
		
			<rect x="178.6" y="92" transform="matrix(0.8567 0.5159 -0.5159 0.8567 75.0068 -85.6163)" class="st0" width="25.9" height="0.3"/>
		
			<rect x="178.1" y="92.9" transform="matrix(0.8567 0.5159 -0.5159 0.8567 75.3935 -85.2076)" class="st0" width="25.9" height="0.3"/>
	</g>
	<g>
		<path class="st0" d="M62.7,236.2c-0.1,0-0.1-0.1-0.1-0.2c-0.1-0.3,0.1-0.4,1.5-0.9c0.9-0.3,2.1-0.6,3.4-0.9
			c1.3-0.3,2.5-0.6,3.4-0.8c1.5-0.3,1.7-0.3,1.8,0c0.1,0.3,0.1,0.5-4.9,1.8c-1.3,0.3-2.5,0.6-3.4,0.8
			C63.3,236.3,62.9,236.3,62.7,236.2z"/>
		<polygon class="st0" points="62.8,242 61.7,237.7 62.6,236 63,236.2 62.3,237.7 63.3,241.8 		"/>
		<polygon class="st0" points="74.9,239.2 73.8,234.8 72.2,233.8 72.5,233.3 74.3,234.5 75.4,239.1 		"/>
		<path class="st0" d="M67.9,239.5c-0.6-0.4-0.8-1.2-0.4-1.8c0.4-0.6,1.2-0.8,1.8-0.4c0.6,0.4,0.8,1.2,0.4,1.8
			C69.3,239.7,68.5,239.9,67.9,239.5z M69,237.8c-0.3-0.2-0.8-0.1-1,0.3s-0.1,0.8,0.3,1s0.8,0.1,1-0.3S69.3,238,69,237.8z"/>
		<path class="st0" d="M63.1,240.8C63.1,240.8,63.1,240.8,63.1,240.8c-0.3-0.2-0.5-0.6-0.6-1.1c0-0.3,0-0.6,0.1-0.9
			c0.1-0.3,0.3-0.5,0.6-0.5c0.5-0.1,0.9,0.4,1,1.2l0,0c0,0.3,0,0.6-0.1,0.9c-0.1,0.3-0.3,0.5-0.6,0.5
			C63.4,240.9,63.3,240.9,63.1,240.8z M63.4,238.9C63.3,238.9,63.3,238.8,63.4,238.9c-0.1,0-0.2,0-0.2,0.2c-0.1,0.2-0.1,0.4,0,0.6
			c0,0.3,0.2,0.6,0.3,0.7c0,0,0.1,0,0.1,0c0,0,0.1-0.1,0.1-0.2c0.1-0.2,0.1-0.4,0.1-0.6l0,0C63.6,239.2,63.5,238.9,63.4,238.9z"/>
		<path class="st0" d="M73.6,238c-0.3-0.2-0.5-0.6-0.6-1.1c-0.1-0.7,0.1-1.3,0.6-1.4c0.1,0,0.4,0,0.6,0.4c0.1,0.2,0.2,0.5,0.3,0.8
			c0.1,0.7-0.1,1.3-0.6,1.4C73.8,238.1,73.7,238.1,73.6,238z M73.6,236C73.6,236,73.6,236,73.6,236c0,0-0.1,0.3-0.1,0.8
			c0.1,0.5,0.3,0.7,0.3,0.7c0,0,0.1-0.3,0.1-0.8C73.9,236.3,73.7,236.1,73.6,236z"/>
	</g>
	<g>
		<path class="st0" d="M76,306.3L55.5,294c-1-0.6-1.3-1.9-0.7-2.9l0.1-0.2c0.6-1,1.9-1.3,2.9-0.7l20.5,12.3c1,0.6,1.3,1.9,0.7,2.9
			l-0.1,0.2C78.3,306.6,77,307,76,306.3z M57.6,290.6c-0.7-0.4-1.7-0.2-2.1,0.5l-0.1,0.2c-0.4,0.7-0.2,1.7,0.5,2.1l20.5,12.3
			c0.7,0.4,1.7,0.2,2.1-0.5l0.1-0.2c0.4-0.7,0.2-1.7-0.5-2.1L57.6,290.6z"/>
		<path class="st0" d="M79.1,301.2l-20.5-12.3c-1-0.6-1.3-1.9-0.7-2.9l0.1-0.2c0.6-1,1.9-1.3,2.9-0.7l20.5,12.3
			c1,0.6,1.3,1.9,0.7,2.9l-0.1,0.2C81.4,301.5,80.1,301.8,79.1,301.2z M60.6,285.5c-0.7-0.4-1.7-0.2-2.1,0.5l-0.1,0.2
			c-0.4,0.7-0.2,1.7,0.5,2.1l20.5,12.3c0.7,0.4,1.7,0.2,2.1-0.5l0.1-0.2c0.4-0.7,0.2-1.7-0.5-2.1L60.6,285.5z"/>
		<path class="st0" d="M82.2,296.1l-20.5-12.3c-1-0.6-1.3-1.9-0.7-2.9l0.1-0.2c0.6-1,1.9-1.3,2.9-0.7l20.5,12.3
			c1,0.6,1.3,1.9,0.7,2.9l-0.1,0.2C84.5,296.4,83.2,296.7,82.2,296.1z M63.7,280.4c-0.7-0.4-1.7-0.2-2.1,0.5l-0.1,0.2
			c-0.4,0.7-0.2,1.7,0.5,2.1l20.5,12.3c0.7,0.4,1.7,0.2,2.1-0.5l0.1-0.2c0.4-0.7,0.2-1.7-0.5-2.1L63.7,280.4z"/>
		<rect x="60" y="282.3" transform="matrix(0.8567 0.5159 -0.5159 0.8567 155.0561 9.5911)" class="st0" width="0.6" height="2.9"/>
		
			<rect x="56.9" y="287.5" transform="matrix(0.8567 0.5159 -0.5159 0.8567 157.2359 11.895)" class="st0" width="0.6" height="2.7"/>
		
			<rect x="63.2" y="276.9" transform="matrix(0.8567 0.5159 -0.5159 0.8567 152.7933 7.1994)" class="st0" width="0.6" height="3.3"/>
		<g>
			
				<rect x="82.5" y="295.9" transform="matrix(0.8567 0.5159 -0.5159 0.8567 165.2953 -9.639542e-002)" class="st0" width="0.6" height="2.9"/>
			
				<rect x="79.5" y="301" transform="matrix(0.8567 0.5159 -0.5159 0.8567 167.4751 2.2075)" class="st0" width="0.6" height="2.9"/>
			
				<rect x="85.7" y="290.5" transform="matrix(0.8567 0.5159 -0.5159 0.8567 163.0325 -2.4881)" class="st0" width="0.6" height="3.3"/>
		</g>
	</g>
	<polygon class="st0" points="8.6,404.9 0,399.7 61.7,297.2 62.2,297.5 0.8,399.5 8.4,404.1 69.9,302.1 70.3,302.3 	"/>
	<g>
		
			<rect x="110.1" y="205.7" transform="matrix(0.8567 0.5159 -0.5159 0.8567 123.8526 -33.9885)" class="st0" width="25.9" height="0.3"/>
		
			<rect x="109.6" y="206.6" transform="matrix(0.8567 0.5159 -0.5159 0.8567 124.2392 -33.5798)" class="st0" width="25.9" height="0.3"/>
	</g>
	<g>
		
			<rect x="102.7" y="218.1" transform="matrix(0.8567 0.5159 -0.5159 0.8567 129.1677 -28.3706)" class="st0" width="25.9" height="0.3"/>
		
			<rect x="102.1" y="219" transform="matrix(0.8567 0.5159 -0.5159 0.8567 129.5544 -27.9619)" class="st0" width="25.9" height="0.3"/>
	</g>
	<g>
		
			<rect x="95.2" y="230.4" transform="matrix(0.8567 0.5159 -0.5159 0.8567 134.4709 -22.7653)" class="st0" width="25.9" height="0.3"/>
		
			<rect x="94.7" y="231.3" transform="matrix(0.8567 0.5159 -0.5159 0.8567 134.8576 -22.3566)" class="st0" width="25.9" height="0.3"/>
	</g>
	<path class="st1" d="M156.6,4.9c0,0,48.3,28.2,64.2,37.9C237,52.5,285,82.2,285,82.2"/>
</g>
</svg>
