<?xml version="1.0" encoding="utf-8"?>
<!-- Generator: Adobe Illustrator 19.0.0, SVG Export Plug-In . SVG Version: 6.00 Build 0)  -->
<svg version="1.1" id="Layer_1" xmlns="http://www.w3.org/2000/svg" xmlns:xlink="http://www.w3.org/1999/xlink" x="0px" y="0px"
	 viewBox="0 0 135.2 153.4" style="enable-background:new 0 0 135.2 153.4;" xml:space="preserve">
<style type="text/css">
	.st0{fill:#FFFFFF;}
</style>
<g>
	<path class="st0" d="M134.4,7.4C134.4,7.4,134.4,7.3,134.4,7.4c0-0.1,0-0.1,0-0.1c0-0.3-0.1-0.6-0.1-0.9c-0.7-3.1-3.5-4.8-3.6-4.9
		c-5.6-3.4-11.5,0.1-12.5,1.3c-0.8,1-2,1.9-2.4,2.2l-0.3,0.4c0,0,0,0,0,0L55.3,71.7c-0.1,0-0.1,0-0.2,0c-0.1,0-0.2,0.1-0.3,0.1
		c-2.4,0.5-4.1,2.6-6.7,5.7l-0.1,0.1c-1.2,1.5-2.7,3.1-4.5,5.1c-6.4,6.9-20.6,24.9-24.1,29.6C6.6,129.5,0.1,138.6,0,139.4
		c-0.1,0.6,0.1,1,0.3,1.3c0.1,0.1,0.2,0.1,0.2,0.2c0,0,0.1,0.1,0.2,0.1c0.1,0,0.2,0,0.3,0c0.3-0.1,0.8-0.3,1.3-0.8
		c0.5-0.4,0.8-0.7,1-0.9c0.3-0.3,0.3-0.3,0.4-0.3c0.1,0,0.3,0.1,0.5,0.1c0,0,0,0,0,0c0.4,0.1,0.8,0.3,1,0.1c0.1-0.1,0.2-0.4,0.4-1
		c0.2-0.5,0.4-1.1,0.5-1.4c0,0,0.1,0,0.4,0.1c0.3,0.1,0.7,0.3,1,0.1c0.2-0.2,0.3-0.6,0.5-1.1l0,0c0.1-0.4,0.3-0.9,0.4-1.1
		c0.1,0,0.1,0.1,0.3,0.1l0,0c0.4,0.2,0.8,0.4,1.1,0.1c0.1-0.1,0.2-0.4,0.4-1c0.1-0.4,0.3-1,0.5-1.2c0,0,0.1,0,0.3,0.1
		c0.4,0.2,0.8,0.3,1.1,0c0.2-0.2,0.3-0.7,0.5-1.1c0.1-0.3,0.3-0.9,0.4-1c0,0,0.2,0,0.6,0.1c0.3,0.1,0.7,0.2,0.9,0
		c0.1-0.2,0.3-0.5,0.4-1l0,0c0.1-0.4,0.3-1,0.5-1.2c0,0,0.2,0,0.4,0.1c0.3,0.1,0.6,0.3,0.9,0c0.1-0.1,0.2-0.4,0.4-0.9
		c0.1-0.2,0.2-0.4,0.2-0.6l0.1-0.1c0.1-0.2,0.2-0.4,0.3-0.4c0,0,0.2,0,0.5,0.1l0-0.1l0,0l0,0.1c0.3,0.1,0.6,0.2,0.8,0
		c0.3-0.2,0.4-0.8,0.6-1.3l0,0c0.1-0.4,0.2-0.8,0.3-0.9c0.1-0.1,0.1,0,0.4,0.1c0.2,0.1,0.6,0.4,0.8,0.1c0.2-0.2,0.3-0.6,0.4-1l0,0
		c0.1-0.4,0.3-1,0.5-1.2c0.1-0.1,0.2,0,0.4,0.1c0.2,0.1,0.5,0.3,0.8,0c0.2-0.2,0.3-0.6,0.5-1.2c0.1-0.4,0.3-1,0.4-1.1
		c0,0,0.1,0,0.3,0.1c0.2,0.1,0.6,0.4,0.9,0.1c0.2-0.2,0.3-0.6,0.5-1.1c0.1-0.3,0.3-0.9,0.4-1c0.1-0.1,0.2,0,0.4,0.1
		c0.3,0.1,0.6,0.3,0.9,0c0.2-0.2,0.3-0.6,0.5-1.1l0,0c0.1-0.4,0.2-0.9,0.4-1.2c0.1-0.1,1.1-1.2,2.7-2.8l0.7-0.7
		c7.1-7.3,23.7-24.4,25.5-26.9c1.9-1.6,2.8-2.6,3.3-3.2l0.2-0.2c0.5-0.5,7.3-8.1,7.4-8.1l0,0c0,0,0,0,0,0l0.1-0.4l47.5-53.4
		c0,0,0,0,0,0l0,0c0,0,0.7-3.6,1.4-4.9c0-0.1,0.1-0.2,0.2-0.4l0-0.1c0.9-2,3.3-7.2,10.8-5.7c2.5,0.5,3.4,2.3,3.6,2.9
		c-2.5,1.6-5.2,2.6-8,3.5l0,0c0,0,0,0,0,0l0,0c-1.6,1.6-52.9,59.8-53.4,60.4l-0.4,0.5c0,0,0,0,0,0l0,0.5l-2.4,3
		c-0.1,0.1-7.2,8-20.1,23.7c-13,15.9-34.8,46.7-35.1,47.8c-0.1,0.6,0,1.1,0.4,1.3c0.2,0.1,0.4,0.2,0.6,0.2c0.1,0,0.1,0,0.2,0
		c0.1,0,0.2-0.1,0.3-0.1c0.4-0.3,1.8-1.7,2.2-2c0.5,0.1,1.2,0.3,1.5,0c0.3-0.3,0.5-0.8,0.6-1.4c0.1-0.3,0.2-0.7,0.3-0.8
		c0,0,0.1,0,0.5,0.1l0,0c0.4,0.1,0.8,0.2,1-0.1c0.2-0.2,0.3-0.7,0.5-1.2l0,0c0.1-0.3,0.2-0.8,0.3-0.8c0,0,0,0,0,0
		c0.1,0,0.4,0.1,0.5,0.1c0,0,0,0,0,0c0,0,0,0,0,0c0.4,0.1,0.7,0.2,0.9,0c0.1-0.1,0.2-0.4,0.3-0.8c0.2-0.5,0.4-1.2,0.6-1.4
		c0.1-0.1,0.3,0,0.6,0.1c0.3,0.1,0.6,0.2,0.8,0c0.3-0.3,0.5-0.9,0.6-1.5l0,0c0.1-0.2,0.2-0.7,0.3-0.8c0.1-0.1,0.5,0.1,0.6,0.1
		c0.3,0.1,0.6,0.2,0.7,0c0.2-0.3,0.4-0.8,0.5-1.2l0,0c0.1-0.4,0.3-0.9,0.4-1c0.1-0.1,0.2,0,0.5,0.1c0.3,0.1,0.6,0.3,0.9,0
		c0.2-0.2,0.3-0.6,0.4-1.1c0.1-0.4,0.2-0.9,0.4-1c0.1-0.1,0.2-0.1,0.6,0.1c0.2,0.1,0.5,0.2,0.8,0c0.2-0.1,0.3-0.5,0.5-1.1
		c0.1-0.4,0.3-1,0.5-1.2c0.1-0.1,0.2,0,0.5,0.1c0.2,0.1,0.5,0.3,0.8,0c0.1-0.1,0.2-0.5,0.4-1.1c0.1-0.5,0.3-1,0.5-1.2
		c0.1-0.1,0.4,0,0.6,0.1l0,0c0.3,0.1,0.6,0.2,0.8,0c0.2-0.2,0.2-0.5,0.4-1c0,0,0,0,0,0c0.1-0.5,0.3-1,0.5-1.3
		c0.1-0.1,0.1-0.1,0.5,0.1c0.2,0.1,0.6,0.3,0.9,0c0.2-0.2,0.3-0.7,0.4-1.2c0.1-0.3,0.2-0.8,0.3-0.9c0,0,0.2,0,0.5,0.1l0,0
		c0.3,0.1,0.6,0.2,0.8,0c0.2-0.1,0.2-0.4,0.4-1c0.1-0.5,0.2-1.1,0.5-1.3c0.3-0.3,26.5-28,28.3-30.5c1.3-1.7,1.5-2.6,1.7-3.1l0,0
		c0.1-0.2,0.1-0.4,0.2-0.5l0,0c0,0,0,0,0,0c0.7-0.8,10.5-12.3,53.1-61.6l0.3-0.3c1.3-1.5,2-2.4,2.2-2.6l0,0
		c0.4-0.4,8.6-9.1,8.4-11.4c-0.1-1.4-0.4-5.4-0.6-8.1L134.4,7.4z M39.2,129.4c-0.3-0.1-0.7-0.2-0.9,0.1c-0.2,0.2-0.3,0.6-0.4,1.1
		c-0.1,0.3-0.2,0.8-0.3,1c-0.1,0-0.2-0.1-0.3-0.1c-0.3-0.2-0.8-0.4-1.1,0c-0.3,0.4-0.4,1-0.6,1.5c0,0.2-0.1,0.6-0.2,0.7
		c-0.1,0-0.3-0.1-0.4-0.1c-0.3-0.1-0.8-0.3-1.1,0c-0.2,0.2-0.4,0.8-0.5,1.4c-0.1,0.2-0.2,0.7-0.3,0.8c0,0-0.1,0-0.2-0.1
		c-0.3-0.1-0.7-0.4-1,0c-0.2,0.3-0.4,0.8-0.6,1.4l0,0c-0.1,0.3-0.2,0.7-0.3,0.8c0,0-0.1,0-0.2-0.1l0,0c-0.3-0.1-0.8-0.3-1.1,0.1
		c-0.3,0.3-0.4,0.8-0.5,1.2l0,0c-0.1,0.3-0.2,0.7-0.3,0.8c0,0-0.2,0-0.4-0.1c-0.3-0.1-0.7-0.3-1,0c-0.3,0.2-0.4,0.7-0.5,1.3
		c0,0,0,0,0,0c0,0,0,0,0,0c-0.1,0.4-0.2,0.8-0.4,1c0,0-0.1,0-0.3-0.1c0,0,0,0,0,0c-0.3-0.1-0.7-0.2-1,0c-0.2,0.1-0.3,0.5-0.5,1.1
		c0,0,0,0,0,0c-0.1,0.4-0.3,1-0.5,1.2c0,0-0.1,0-0.3-0.1c-0.3-0.1-0.8-0.3-1.1,0c-0.3,0.3-0.5,1-0.7,1.6l0.1,0l-0.1,0
		c-0.1,0.2-0.2,0.5-0.2,0.6c-0.1,0-0.2,0-0.4-0.1c-0.4-0.1-0.8-0.2-1,0.1c-0.2,0.2-0.3,0.6-0.4,1.1l0,0c-0.1,0.4-0.3,0.9-0.4,1
		c-0.1,0-0.4,0-0.5-0.1l0,0c-0.4-0.1-0.7-0.2-0.9,0.1c-0.2,0.2-0.3,0.6-0.4,1l0,0c-0.1,0.4-0.3,1-0.5,1.1c-0.1,0.1-0.6,0-1.2-0.1
		l-0.1,0c0,0-0.1,0-0.1,0l-0.1,0.1c0,0-1.8,1.8-2.2,2.1c0,0-0.1,0-0.2,0.1l0-0.1c-0.2-0.3-0.3-0.5,0.1-1
		c0.2-0.3,19.4-27.3,23.9-32.8c4.4-5.6,23.4-29.1,26.7-32.8c3.3-3.6,3.6-4.9,3.6-5l0-0.1c0,0,0,0,0-0.1c0,0,0,0-0.1,0l0,0
		c0.2-0.2,0.3-0.3,0.3-0.3l0.1-0.2c0,0.1,0,0.2,0,0.2l0,0.1c0.1,0.9,0.3,2.1-0.9,3.4c-1.8,2.1-39.2,47.5-40.9,51.1
		c-0.5,1.2-0.6,2-0.1,2.4c0.3,0.3,0.9,0.3,1.6,0.2c0.6-0.2,1.2-0.4,1.4-0.5c0.3-0.2,8.1-8.1,13.3-13.4c4-4,13.3-13.5,14.4-14.9
		c1.6-1.9,10.8-12.1,13.3-14.8c-0.2,0.5-0.6,1.3-1.4,2.4c-1.8,2.4-28,30.2-28.3,30.5c-0.3,0.3-0.5,1-0.6,1.5c0,0.2-0.2,0.7-0.2,0.7
		C39.6,129.5,39.4,129.4,39.2,129.4L39.2,129.4z M63.8,85.9c-3.3,3.7-22.3,27.2-26.8,32.8c-4.3,5.5-23.1,31.7-23.9,32.8
		c-0.2,0.3-0.3,0.5-0.4,0.7c0-0.1,0-0.2,0-0.3c0.2-0.9,21.3-30.9,35-47.6c10.3-12.6,17.1-20.2,19.3-22.8
		C66.8,82.3,65.9,83.6,63.8,85.9z M131.4,13.3C120.5,25.7,71,82,70.4,83.2c-0.2,0.3-3.2,3.7-6.1,7.1l-0.1,0.1
		c-3.5,4-7.1,8.2-10,11.6c-4.9,5.7-18.2,23.2-23.2,29.8l-0.2,0.3c-1.2,1.6-2.2,2.9-2.3,3.1c-0.8,1-0.7,1.7-0.5,2.1
		c-0.7,0.2-1.3,0.2-1.5,0c-0.3-0.2-0.2-0.9,0.2-1.9c1.7-3.7,40.4-50.6,40.8-51c1.3-1.5,1.1-2.8,1-3.7l0,0c0-0.1,0-0.2,0-0.3l0-0.1
		c0,0,0-0.1-0.1-0.1c0,0,0,0,0,0l-0.2,0l2.2-2.8l0,0c0,0,0,0,0,0l0-0.5l0.7-0.8c8.5-9.6,50.8-57.7,52.9-59.9
		C126.6,15.5,129.1,14.7,131.4,13.3z M42.2,123.6c-6.5,6.6-13.1,13.2-13.3,13.4c-0.1,0-0.3,0.1-0.5,0.2c-0.3-0.4-0.1-1,0.4-1.7
		c0.1-0.2,0.9-1.1,2-2.7l0.6-0.8c5.5-7.2,18.3-24.1,23.1-29.8c3-3.5,6.8-7.9,10.1-11.7l0.4-0.4c3.2-3.8,5.6-6.5,5.8-6.8
		c0.6-1.2,49.7-57.1,61.8-70.9c0,0,0,0,0.1,0c0,0,0,0,0.1-0.1l0,0c0.6-0.9,1-1.8,1.3-2.6c0.3,4,0.5,6.7,0.6,7.7
		c0.1,1.6-5.4,7.9-8.3,11c0,0,0,0,0,0l-1.9,2.2c-34.9,40.4-53.5,62-53.8,62.4l-0.1,0.1c-2.9,3.2-12.4,13.6-14,15.6
		C55.7,109.8,50.3,115.3,42.2,123.6z M27,117.9C26.9,117.9,26.9,117.9,27,117.9l-0.1,0.1c-0.3-0.1-0.6-0.2-0.9,0.1
		c-0.2,0.2-0.4,0.7-0.5,1.2l0,0c-0.1,0.3-0.2,0.8-0.4,0.9c0,0-0.1,0-0.3-0.1c-0.2-0.1-0.7-0.4-1,0c-0.2,0.2-0.4,0.8-0.5,1.3l0,0
		c-0.1,0.2-0.3,0.8-0.3,0.9c0,0,0,0,0,0c0,0-0.2-0.1-0.2-0.1l0,0c-0.3-0.1-0.6-0.3-0.9,0c-0.2,0.2-0.4,0.8-0.6,1.4l0,0
		c-0.1,0.3-0.2,0.7-0.3,0.8c-0.1,0-0.2-0.1-0.2-0.1c-0.2-0.2-0.7-0.4-1-0.1c-0.2,0.2-0.3,0.5-0.4,1c0,0.1,0,0.1-0.1,0.2l0,0
		c0,0-0.1,0-0.1,0.1c0,0,0,0.1,0,0.1c0,0.1,0,0.2-0.1,0.2c-0.1,0.3-0.1,0.5-0.2,0.6c0,0,0,0.1-0.1,0.1c0,0-0.1,0-0.4-0.1
		c-0.3-0.1-0.7-0.2-1,0c-0.3,0.2-0.5,0.8-0.7,1.4l0,0c-0.1,0.2-0.2,0.6-0.3,0.7c0,0-0.1,0-0.3-0.1c-0.3-0.2-0.7-0.4-1,0
		c-0.2,0.2-0.4,0.8-0.6,1.3l0,0c-0.1,0.3-0.2,0.7-0.3,0.9c0,0-0.1,0-0.4-0.1c-0.4-0.1-0.8-0.2-1,0c-0.2,0.2-0.4,0.7-0.5,1.2l0,0
		c-0.1,0.4-0.3,0.8-0.4,0.9c0,0,0,0,0,0c-0.1,0-0.4-0.1-0.5-0.2c0,0,0,0,0,0c-0.3-0.1-0.6-0.3-0.8,0c-0.2,0.3-0.4,0.9-0.6,1.5l0,0.1
		c-0.1,0.2-0.2,0.6-0.2,0.7c-0.1,0-0.2,0-0.5-0.2l0,0c-0.4-0.2-0.7-0.3-0.9-0.1c-0.2,0.3-0.4,0.8-0.6,1.4c-0.1,0.3-0.3,0.9-0.4,0.9
		c0,0-0.1,0-0.5-0.2c0,0,0,0,0,0c-0.3-0.1-0.6-0.3-0.8-0.1c-0.3,0.3-0.5,1-0.7,1.6l0,0c-0.1,0.2-0.2,0.6-0.3,0.7
		c-0.1,0-0.2,0-0.5-0.2c0,0,0,0,0,0l0,0c-0.2-0.1-0.4-0.2-0.6-0.2c-0.3,0-0.5,0.1-0.8,0.4c-0.2,0.2-0.4,0.4-0.9,0.9
		c-0.6,0.6-1,0.7-1.1,0.7c0.9-3.1,27.5-37.9,33.5-45c5.2-6.1,12.9-15.1,15.8-18.5l0.9-1l0.1-0.1c0,0,1.6-2.4,4.4-3.1l0,0
		c-0.6,0.8-2.1,2.7-3.3,4c-1.3,1.3-17,19.6-26.7,31.7c-2.1,2.6-10,13.4-11.2,15.1c-0.9,1.3-0.6,1.9-0.3,2.2c0.2,0.2,0.6,0.3,1.1,0.2
		c0.3-0.1,0.6-0.2,0.8-0.4c2.1-1.7,22.2-21,28.7-27.8c6.9-7.1,12.9-14,13.5-14.8l0-0.1c0,0,0,0,0-0.1c0,0,0,0,0-0.1l-0.3-0.2
		c0,0-0.1,0-0.1,0l0,0.1c-0.6,0.8-6.7,7.7-13.5,14.8c-6.5,6.7-26.5,26-28.7,27.7c-0.4,0.3-1,0.4-1.3,0.2c-0.2-0.2-0.2-0.5,0.1-0.9
		c0.1,0,0.2,0,0.3,0c0.4-0.1,1-0.5,1.7-1.1c1.2-1.1,10.8-10.3,12-11.4c0.8-0.8,12.9-13.4,20.9-21.7l1.6-1.7c4.5-4.7,8-8.4,8.9-9.3
		c2.5-2.5,50.1-56.2,57.3-64.4c-0.1,0.2-0.1,0.3-0.2,0.4l-0.1,0.2c0,0.1-0.1,0.1-0.1,0.2c-0.6,1.3-1.3,4.5-1.4,5L68,73.7l0,0
		c0,0,0,0,0,0l-0.1,0.4c-0.5,0.5-6.9,7.6-7.3,8l-0.2,0.2c-0.5,0.5-1.4,1.5-3.3,3.2l0,0c-1.8,2.5-18.4,19.5-25.4,26.8l-0.2,0.2
		c-2.1,2.1-3.1,3.2-3.2,3.3c-0.3,0.3-0.4,0.9-0.6,1.4c-0.1,0.3-0.2,0.7-0.3,0.8c-0.1,0-0.2,0-0.4-0.1L27,117.9
		C27,117.9,27,117.9,27,117.9z M113.7,9.4L113.7,9.4C113.7,9.5,113.7,9.5,113.7,9.4l0.1,0.6L60.6,69.2L60,69.3c0,0,0,0,0,0l-0.3,0.4
		c-0.4,0.4-1.2,1.1-3.5,1.8l58.7-64.8L113.7,9.4z M50.9,75.4c0,0,0,0.1-0.1,0.1l-0.5,0.6c-7,8.3-12.5,14.7-16.2,19
		c-3.1,3.6-11.7,14.7-19.2,24.7c-4.2,5.5-7.7,10.3-10.1,13.9c-2.3,3.3-3.7,5.4-4.1,6.4c0-0.1-0.1-0.4-0.1-0.6
		c0.1-0.7,7.3-10.7,19.3-26.9c3.5-4.7,17.7-22.7,24.1-29.6c1.8-1.9,3.3-3.6,4.6-5.1l0,0c2.5-3.1,4.2-5.1,6.4-5.5c0,0,0.1,0,0.1,0
		C52.3,73.2,50.9,75.4,50.9,75.4z M59.6,78.7c-0.8,0.8-3.7,3.9-9,9.4l-0.3,0.3c-8.5,8.8-21.3,22.2-22.1,23
		c-1.2,1.2-10.8,10.3-12,11.4c-0.8,0.8-1.3,1-1.5,1c0-0.1,0.1-0.1,0.1-0.2c1.2-1.7,9.1-12.5,11.1-15.1c9.8-12.2,25.5-30.4,26.7-31.7
		c1.2-1.2,2.6-3.1,3.3-4l0.2-0.2c0.1-0.1,0.2-0.2,0.2-0.3l0,0c1.3-0.3,2.3-1.1,3-1.7c0.3-0.2,0.5-0.4,0.6-0.6l0.3-0.3l0.6-0.1l0,0
		c0,0,0,0,0,0l53.4-59.3l0.1-0.1c0,0,0,0,0-0.1l-0.1-0.6l1.6-3.9l0.3-0.3c0.4-0.3,1.6-1.2,2.5-2.2c0.9-1.1,6.5-4.5,11.9-1.2
		c0.3,0.2,2.8,1.8,3.4,4.6c0,0.2,0.1,0.4,0.1,0.7c0,0,0,0.1,0,0.3c0.1,1.5-0.4,3.1-1.5,4.7c0,0-0.1,0.1-0.1,0.1c0,0,0,0,0,0
		c-0.3-0.7-1.3-2.6-3.9-3.1c-1.1-0.2-2.2-0.3-3.1-0.3c-3.1,0.1-5.5,1.6-7.2,4.3l-0.4,0.4C108.4,24,62,76.2,59.6,78.7z M27.2,141.4
		L27.2,141.4L27.2,141.4L27.2,141.4z"/>
</g>
</svg>
