<?xml version="1.0" encoding="utf-8"?>
<!-- Generator: Adobe Illustrator 19.0.0, SVG Export Plug-In . SVG Version: 6.00 Build 0)  -->
<svg version="1.1" id="Layer_1" xmlns="http://www.w3.org/2000/svg" xmlns:xlink="http://www.w3.org/1999/xlink" x="0px" y="0px"
	 viewBox="0 0 122 177.4" style="enable-background:new 0 0 122 177.4;" xml:space="preserve">
<style type="text/css">
	.st0{fill:#FFFFFF;}
</style>
<path class="st0" d="M105.7,174.9c1-1.2,9.7-11,13.3-15.1l0.2-0.2c0.1-0.1,2.6-3.1,2.8-5.6c0.2-2.6-1.2-4.6-2-5.6
	c-0.8-1-9.8-10.9-9.9-11l0,0l0,0c0.2-1.1,1.1-6.9-1.1-9.3c-0.3-0.3-26.2-28.9-24.4-51c0-0.1-0.2-11.3,2.9-21.2
	c1.2-3.8,2.2-6.5,3-8.6l0,0c1.3-3.4,2.1-5.5,2.4-9.3l2-24.6c0,0,0.6-2.8,2.9-3.5c1.9-0.6,1.9-1.9,2-2.7l0,0c0-0.1,0-0.2,0-0.3
	c0-0.5,0.1-1.6-0.9-2.3c-0.1-0.1-0.2-0.1-0.3-0.2c-0.2-0.1-0.5-0.2-0.8-0.2l0,0l0,0c-1.2-0.3-3.3-0.6-6.5-1.1
	c-4.9-0.6-11.4-1.3-18.4-1.8c-6.9-0.6-13.5-1-18.4-1.1c-3.2-0.1-5.4-0.1-6.6,0c-0.3,0-0.5,0-0.7,0.1c-0.3,0-0.4,0.1-0.5,0.2l0,0
	c-1,0.5-1.1,1.6-1.1,2.1c0,0.1,0,0.2,0,0.3l0,0c-0.1,0.9-0.3,2.2,1.5,3c1.9,1,2.2,3.5,2.3,3.9l0,0l-2,24.6c-0.3,3.8,0.1,5.9,0.9,9.5
	c0.5,2.2,1,4.9,1.6,8.9c1.4,10.1-0.5,20.9-0.5,21.4c-1.8,22-32,46.2-32.3,46.4c-2.6,2.1-2.6,7.9-2.6,9l0,0l0,0
	c-0.1,0.1-10.5,8.4-11.5,9.2c-1,0.8-2.7,2.6-2.9,5.2c-0.2,2.5,1.8,5.8,1.9,6l0.2,0.2C5,155,12,166,12.8,167.4
	c0.9,1.4,2.2,2.8,5.3,3.4c10.5,1.6,36.5,4.4,40.9,4.8l0-0.4c-4.4-0.4-30.4-3.2-40.9-4.8c-1.5-0.3-2.7-0.8-3.6-1.6l-0.1-0.1l0.2,0
	c0.5,0.1,1,0.1,1.7,0c0.8-0.1,1.6-0.3,1.7-1.5c0.1-0.6,0.2-1,0.4-1.3l0,0l0,0c0.7,0.6,4.6,1.3,11.9,2.3c7.7,1,18,2,28.9,2.9
	c10.9,0.9,21.2,1.5,29,1.8c7.5,0.2,11.4,0.1,12.1-0.3l0,0l0,0c0.2,0.3,0.2,0.7,0.2,1.3c0,1.2,0.7,1.5,1.5,1.8
	c0.4,0.1,0.8,0.2,1.1,0.2c0.2,0,0.3,0,0.5,0l0.2,0l-0.2,0.1c-1,0.6-2.2,0.9-3.8,1c-10.7-0.1-36.5-1.5-41-1.8l0,0.4
	c4.4,0.4,30.3,1.7,41,1.8C103.1,177.3,104.5,176.1,105.7,174.9z M47.3,0.5c0.2-0.1,0.4-0.1,0.6-0.1l0,0c2.7-0.2,11.7,0.1,25,1.1
	c13.3,1.1,22.2,2.3,24.9,2.9l0,0c0.1,0,0.3,0.1,0.4,0.1c0,0,0,0,0.1,0c0,0,0,0,0,0c0,0,0,0,0,0l0.1,0.1l-0.1,0
	c-1.8,0.3-11.9,0-25.6-1.1C59.1,2.6,49.1,1.3,47.3,0.5l-0.1,0L47.3,0.5z M46.9,5.3L46.9,5.3c-1.2-0.7-1.1-1.7-1-2.5l0,0
	c0-0.1,0-0.2,0-0.3c0-0.6,0.2-1.3,0.8-1.7l0,0l0,0c0.6,0.4,3,0.8,7.6,1.4C59.2,2.8,65.8,3.5,72.7,4c6.9,0.6,13.5,1,18.4,1.1
	c4.7,0.2,7.1,0.1,7.7-0.2l0,0l0,0c0.5,0.5,0.6,1.2,0.5,1.8c0,0.1,0,0.2,0,0.3l0,0c0,0.8-0.1,1.8-1.4,2.3l0,0
	c-2.1,0.3-11.8,0-25.6-1.1C58.6,7.2,49,5.9,46.9,5.3z M16.5,121.6c0.2-0.3,0.4-0.5,0.7-0.7l0,0c0.3-0.2,30.6-24.5,32.4-46.7
	c0-0.1,2-11.2,0.5-21.5c-0.6-4-1.1-6.8-1.6-9c-0.7-3.6-1.2-5.7-0.9-9.4l2-24.6c0,0-0.1-2.3-1.7-3.7l-0.1-0.1l0.2,0
	c1.3,0.3,3.2,0.6,5.8,0.9c4.9,0.6,11.5,1.3,18.5,1.9s13.6,1,18.5,1.1c2.7,0.1,4.6,0.1,5.9,0.1l0.2,0l-0.1,0.1
	c-1.8,1.1-2.2,3.4-2.3,3.4l-2,24.6c-0.3,3.7-1.1,5.8-2.4,9.2c-0.8,2.1-1.8,4.7-3,8.6c-3.1,10-2.9,21.2-2.9,21.3
	c-1.8,22.2,24.2,51,24.5,51.3c0.2,0.2,0.4,0.5,0.6,0.8l0,0l-0.1,0c-3.8,1.1-22.1,0.6-46.7-1.4C38.2,125.7,20.1,123.4,16.5,121.6
	L16.5,121.6L16.5,121.6z M16.3,122L16.3,122L16.3,122c3.6,1.7,21.3,4.1,46.2,6.1l0.2,0c24.6,2,43,2.5,46.8,1.4l0,0l0,0
	c1.2,3,0.3,7.8,0.3,7.9l0,0.1l0,0c-3.8,1.1-22.9,0.5-47.5-1.5c-24.8-2-43.8-4.5-47.4-6.2l0,0l0-0.1C14.7,129.5,14.7,124.7,16.3,122z
	 M1.4,141.1c0.6-0.9,1.2-1.6,1.7-2c0.9-0.8,9.6-7.7,11.3-9.1l0,0l0,0c3.3,1.7,22.4,4.2,47.5,6.3l0.3,0c25.4,2,44.1,2.6,47.7,1.4l0,0
	l0,0c2.5,2.7,9,10,9.7,10.8c0.4,0.5,1,1.2,1.4,2.2l0,0.1l-0.1,0c-8.1,1.6-47.8-1.2-48.2-1.2l-11.1-0.9l-12.7-1
	C48.8,147.7,9.2,144.1,1.4,141.1L1.4,141.1L1.4,141.1z M1.9,149.2L1.9,149.2L1.9,149.2c-0.6-1.2-1.6-3.4-1.5-5.1
	c0.1-0.9,0.3-1.7,0.8-2.6l0,0l0,0c7.7,2.9,46.3,6.4,47.9,6.6l23.8,1.9c1.6,0.1,40.3,2.9,48.3,1.2l0,0l0,0c0.3,0.9,0.4,1.8,0.4,2.7
	c-0.1,1.7-1.5,3.7-2.2,4.8l0,0l0,0c-8.7,1.5-46.9-1.2-47.2-1.2l-23.4-1.9C48.3,155.5,10.2,152.1,1.9,149.2z M100,172.4
	c-1.6,0.7-17.7,0.3-40.7-1.6c-23-1.9-38.9-4-40.5-5l-0.1-0.1l0.1,0l0,0c1.7-0.7,17.8-0.3,40.7,1.6C82.6,169.2,98.5,171.4,100,172.4
	L100,172.4L100,172.4z M102.1,175.4c-0.9-0.3-1.2-0.6-1.2-1.4c0-0.9,0-1.7-0.8-2l0,0l0,0c-1.1-0.6-4.9-1.2-11.7-2.1
	c-7.7-1-18-2-28.9-2.9c-10.9-0.9-21.2-1.5-29-1.8c-6.7-0.2-10.6-0.2-11.8,0.2l0,0l0,0c-0.8,0.2-1,1-1.1,1.9
	c-0.1,0.8-0.5,1.1-1.4,1.2c-0.3,0-0.7,0.1-1.1,0c-0.6,0-1.2-0.2-1.5-0.7l0,0l0,0c-0.2-0.2-0.3-0.4-0.5-0.6
	c-0.8-1.3-7.8-12.4-10.7-17.1l-0.3-0.4l0.1,0c9.3,2.9,44.9,6.1,46.5,6.2l23.5,1.9c1.5,0.1,37.2,2.7,46.8,1.3l0.1,0l-0.1,0.1
	c0,0-0.1,0.1-0.1,0.1l-0.2,0.2c-3.7,4.2-12.3,14-13.3,15.1c-0.2,0.2-0.4,0.4-0.6,0.6l0,0l0,0C104.1,175.8,102.8,175.6,102.1,175.4z"
	/>
</svg>
