<?xml version="1.0" encoding="utf-8"?>
<!-- Generator: Adobe Illustrator 19.0.0, SVG Export Plug-In . SVG Version: 6.00 Build 0)  -->
<svg version="1.1" id="Layer_1" xmlns="http://www.w3.org/2000/svg" xmlns:xlink="http://www.w3.org/1999/xlink" x="0px" y="0px"
	 viewBox="0 0 131.9 155.3" style="enable-background:new 0 0 131.9 155.3;" xml:space="preserve">
<style type="text/css">
	.st0{fill:#FFFFFF;}
</style>
<g>
	<path class="st0" d="M8.9,0C8.9,0,8.9,0,8.9,0C8.9,0,8.8,0,8.8,0C8.5,0,8.2,0,7.9,0C4.7,0.1,2.6,2.6,2.5,2.7
		C-1.9,7.6,0.6,14,1.6,15.2c0.9,1,1.5,2.3,1.7,2.7l0.3,0.4c0,0,0,0,0,0.1l55,70.6c0,0.1,0,0.1,0,0.2c0,0.1,0,0.2,0,0.3
		c0.1,2.4,1.8,4.5,4.5,7.6l0.1,0.1c1.3,1.5,2.6,3.2,4.2,5.3c5.7,7.5,21,24.6,25,28.9c14.7,15.5,22.6,23.6,23.4,23.8
		c0.6,0.2,1,0.1,1.3-0.1c0.1-0.1,0.2-0.1,0.2-0.2c0,0,0.1-0.1,0.1-0.2c0-0.1,0-0.2,0-0.3c0-0.3-0.2-0.8-0.5-1.4
		c-0.3-0.5-0.5-0.9-0.7-1.1c-0.2-0.4-0.2-0.4-0.2-0.5c0-0.1,0.1-0.3,0.2-0.4c0,0,0,0,0,0c0.2-0.4,0.4-0.7,0.3-1
		c-0.1-0.2-0.3-0.3-0.9-0.6c-0.4-0.2-1.1-0.6-1.2-0.8c0,0,0.1-0.1,0.2-0.4c0.2-0.3,0.4-0.7,0.2-1c-0.1-0.2-0.6-0.4-1-0.7l0,0
		c-0.4-0.2-0.8-0.5-1-0.6c0,0,0.1-0.1,0.2-0.3l0,0c0.3-0.4,0.5-0.7,0.3-1c-0.1-0.1-0.4-0.3-0.9-0.5c-0.4-0.2-0.9-0.5-1.1-0.7
		c0,0,0.1-0.1,0.2-0.3c0.2-0.3,0.5-0.8,0.2-1.1c-0.2-0.2-0.6-0.4-1-0.7c-0.3-0.2-0.9-0.4-1-0.6c0,0,0-0.2,0.2-0.5
		c0.2-0.3,0.3-0.6,0.1-0.9c-0.1-0.2-0.5-0.4-1-0.6l0,0c-0.4-0.2-0.9-0.5-1.1-0.7c0,0,0.1-0.2,0.2-0.4c0.2-0.2,0.4-0.6,0.2-0.8
		c-0.1-0.1-0.4-0.3-0.8-0.5c-0.2-0.1-0.4-0.2-0.6-0.3l-0.1-0.1c-0.2-0.1-0.4-0.3-0.4-0.3c0,0,0-0.2,0.2-0.5l-0.1,0l0,0l0.1,0
		c0.1-0.3,0.3-0.6,0.2-0.8c-0.2-0.3-0.7-0.6-1.2-0.8l0,0c-0.4-0.2-0.8-0.3-0.9-0.5c0-0.1,0-0.2,0.2-0.4c0.2-0.2,0.5-0.5,0.2-0.8
		c-0.1-0.2-0.5-0.4-0.9-0.6l0,0c-0.4-0.2-1-0.5-1.1-0.7c0-0.1,0-0.2,0.2-0.4c0.1-0.2,0.3-0.5,0.2-0.8c-0.1-0.2-0.6-0.4-1.1-0.7
		c-0.4-0.2-0.9-0.5-1-0.6c0,0,0-0.1,0.2-0.3c0.2-0.2,0.5-0.5,0.2-0.8c-0.2-0.2-0.6-0.4-1-0.7c-0.3-0.2-0.8-0.4-0.9-0.6
		c0-0.1,0-0.2,0.2-0.4c0.2-0.3,0.4-0.6,0.2-0.9c-0.1-0.3-0.5-0.4-1-0.6l0,0c-0.4-0.2-0.9-0.4-1.1-0.6c-0.1-0.1-0.9-1.3-2.3-3.1
		l-0.6-0.8c-6-8.2-19.9-27.6-22.1-29.8c-1.3-2.1-2.1-3.2-2.6-3.8l-0.1-0.2c-0.4-0.5-6.7-8.6-6.7-8.6l0,0c0,0,0,0,0,0l-0.4-0.1
		l-44.4-56c0,0,0,0,0,0l0,0c0,0-3.4-1.4-4.6-2.2c-0.1-0.1-0.2-0.1-0.3-0.2l-0.1,0C12,16.8,7.2,13.6,10,6.5c0.9-2.3,2.8-2.9,3.5-3
		c1.2,2.7,1.6,5.6,2,8.5l0,0c0,0,0,0,0,0l0,0.1c1.3,1.8,49.8,62.4,50.3,63l0.4,0.5c0,0,0,0,0,0l0.5,0.1l2.6,2.9
		c0.1,0.1,6.6,8.5,19.9,23.9c13.4,15.5,40,42.4,41,42.8c0.6,0.2,1.1,0.2,1.4-0.2c0.1-0.1,0.2-0.3,0.3-0.5c0-0.1,0-0.1,0-0.2
		c0-0.1,0-0.2-0.1-0.3c-0.2-0.5-1.3-2.1-1.6-2.5c0.2-0.4,0.5-1.2,0.3-1.5c-0.2-0.3-0.7-0.6-1.3-0.9c-0.3-0.1-0.7-0.3-0.8-0.4
		c0,0,0-0.1,0.2-0.4l0,0c0.2-0.4,0.3-0.7,0.1-1c-0.2-0.2-0.6-0.5-1.1-0.7l0,0c-0.3-0.1-0.7-0.4-0.8-0.4c0,0,0,0,0,0
		c0-0.1,0.1-0.4,0.2-0.5c0,0,0,0,0,0c0,0,0,0,0,0c0.2-0.3,0.3-0.6,0.1-0.9c-0.1-0.1-0.3-0.2-0.8-0.5c-0.4-0.2-1.1-0.6-1.3-0.8
		c-0.1-0.1,0-0.3,0.2-0.6c0.2-0.3,0.3-0.5,0.2-0.8c-0.2-0.4-0.8-0.6-1.3-0.9l0,0c-0.2-0.1-0.7-0.3-0.7-0.4c0-0.1,0.1-0.4,0.2-0.6
		c0.1-0.3,0.3-0.5,0.1-0.7c-0.2-0.3-0.7-0.5-1.1-0.7l0,0c-0.4-0.2-0.8-0.4-0.9-0.6c-0.1-0.1,0-0.2,0.2-0.5c0.2-0.3,0.4-0.6,0.1-0.9
		c-0.2-0.2-0.6-0.4-1-0.6c-0.4-0.2-0.8-0.3-1-0.6c-0.1-0.1-0.1-0.2,0.2-0.5c0.1-0.2,0.3-0.5,0.2-0.7c-0.1-0.2-0.4-0.4-1-0.7
		c-0.4-0.2-1-0.5-1.1-0.7c-0.1-0.1,0-0.2,0.2-0.5c0.2-0.2,0.4-0.5,0.2-0.7c-0.1-0.2-0.4-0.3-1-0.6c-0.4-0.2-1-0.5-1.1-0.7
		c-0.1-0.1,0.1-0.3,0.2-0.5l0,0c0.2-0.3,0.3-0.6,0.1-0.8c-0.1-0.2-0.5-0.3-0.9-0.5c0,0,0,0,0,0c-0.4-0.2-1-0.4-1.2-0.7
		c-0.1-0.1-0.1-0.2,0.2-0.5c0.2-0.2,0.4-0.5,0.2-0.8c-0.2-0.2-0.6-0.4-1.1-0.6c-0.3-0.1-0.8-0.4-0.9-0.5c0,0,0-0.2,0.2-0.5l0,0
		c0.1-0.3,0.3-0.6,0.1-0.8c-0.1-0.2-0.4-0.3-0.9-0.5c-0.4-0.2-1-0.4-1.2-0.7C111,112.7,88.1,82.1,86,79.8c-1.4-1.5-2.3-2-2.8-2.2
		l0,0c-0.2-0.1-0.3-0.2-0.4-0.3l0,0c0,0,0,0,0,0c-0.7-0.8-10.3-12.5-51.5-63L30.9,14c-1.2-1.5-2-2.4-2.2-2.6l0,0
		C28.4,10.9,21.2,1.3,19,1c-1.4-0.1-5.4-0.5-8-0.8L8.9,0z M112.7,114.8c-0.1,0.3-0.3,0.7-0.1,0.9c0.2,0.2,0.6,0.4,1.1,0.6
		c0.3,0.1,0.8,0.4,0.9,0.5c0,0.1-0.1,0.2-0.2,0.2c-0.2,0.2-0.6,0.7-0.2,1.1c0.3,0.3,0.9,0.6,1.4,0.8c0.2,0.1,0.6,0.3,0.7,0.3
		c0,0.1-0.1,0.3-0.2,0.4c-0.2,0.3-0.4,0.7-0.1,1.1c0.2,0.2,0.7,0.5,1.3,0.8c0.2,0.1,0.6,0.3,0.8,0.4c0,0-0.1,0.1-0.1,0.2
		c-0.2,0.2-0.5,0.6-0.2,1c0.2,0.3,0.7,0.5,1.3,0.8l0,0c0.2,0.1,0.7,0.4,0.8,0.5c0,0-0.1,0.1-0.1,0.2l0,0c-0.2,0.3-0.5,0.7-0.1,1.1
		c0.2,0.3,0.7,0.5,1.1,0.7l0,0c0.3,0.1,0.7,0.3,0.8,0.4c0,0-0.1,0.2-0.2,0.3c-0.2,0.2-0.4,0.6-0.2,1c0.2,0.3,0.7,0.5,1.1,0.8
		c0,0,0,0,0,0c0,0,0,0,0,0c0.4,0.2,0.7,0.4,0.9,0.5c0,0-0.1,0.1-0.1,0.2c0,0,0,0,0,0c-0.2,0.3-0.3,0.7-0.2,1c0.1,0.2,0.4,0.4,1,0.7
		c0,0,0,0,0,0c0.4,0.2,0.9,0.4,1.1,0.7c0,0-0.1,0.1-0.2,0.3c-0.2,0.3-0.5,0.7-0.2,1.1c0.2,0.3,0.9,0.7,1.4,0.9l0-0.1l0,0.1
		c0.2,0.1,0.5,0.2,0.6,0.3c0,0.1-0.1,0.2-0.2,0.4c-0.2,0.4-0.3,0.8-0.1,1c0.1,0.2,0.5,0.4,1,0.6l0,0c0.3,0.2,0.8,0.4,0.9,0.5
		c0,0.1-0.1,0.4-0.2,0.5l0,0c-0.2,0.4-0.3,0.7-0.1,0.9c0.2,0.2,0.5,0.4,0.9,0.6l0,0c0.4,0.2,0.9,0.4,1.1,0.6
		c0.1,0.1-0.1,0.6-0.3,1.2l0,0.1c0,0,0,0.1,0,0.1l0.1,0.1c0,0,1.4,2.1,1.7,2.5c0,0,0,0.1,0,0.2l-0.1,0c-0.4,0.1-0.5,0.2-1-0.3
		c-0.2-0.2-23.5-23.9-28.2-29.2c-4.7-5.3-24.6-28.1-27.6-32c-3-3.9-4.3-4.4-4.3-4.4l-0.1,0c0,0,0,0-0.1,0c0,0,0,0,0,0l0,0
		c-0.2-0.2-0.3-0.3-0.3-0.3l-0.1-0.1c0.1,0,0.2,0,0.2,0l0.1,0c0.9,0,2.1,0.1,3.2,1.4c1.8,2.2,40,46.8,43.3,49.1
		c1.1,0.7,1.9,0.9,2.4,0.5c0.3-0.3,0.5-0.8,0.4-1.5c0-0.7-0.2-1.3-0.3-1.4c-0.1-0.3-6.6-9.4-10.9-15.4c-3.3-4.6-11-15.4-12.2-16.8
		c-1.6-1.9-10-12.7-12.3-15.6c0.5,0.3,1.2,0.8,2.1,1.8c2.1,2.2,24.9,32.8,25.1,33.1c0.3,0.4,0.9,0.6,1.4,0.8
		c0.2,0.1,0.6,0.3,0.7,0.3C112.9,114.5,112.8,114.7,112.7,114.8L112.7,114.8z M74.1,83.1c3,3.9,22.9,26.7,27.7,32
		c4.6,5.2,27.3,28.2,28.2,29.2c0.3,0.3,0.5,0.4,0.7,0.5c-0.1,0-0.2,0-0.3-0.1c-0.9-0.3-26.7-26.3-40.8-42.6
		c-10.7-12.4-17-20.3-19.1-22.9C71,79.6,72.2,80.6,74.1,83.1z M14.3,4c10.4,12.9,57.2,71.3,58.4,72.1c0.2,0.2,3.1,3.8,5.9,7.2
		l0.1,0.1c3.3,4.1,6.8,8.4,9.7,11.8c4.8,5.8,19.8,21.9,25.4,28l0.3,0.3c1.4,1.5,2.4,2.6,2.6,2.8c0.9,1,1.6,1,1.9,0.9
		c0.1,0.7,0,1.3-0.2,1.5c-0.3,0.2-0.9,0-1.8-0.5c-3.3-2.3-42.8-48.6-43.2-49c-1.2-1.5-2.5-1.6-3.5-1.6l0,0c-0.1,0-0.2,0-0.3,0
		l-0.1,0c0,0-0.1,0-0.1,0.1c0,0,0,0,0,0l0,0.2l-2.3-2.6l0,0c0,0,0,0,0,0l-0.5-0.1l-0.7-0.8c-8-10-48.1-60-49.8-62.5
		C15.6,9.1,15.2,6.5,14.3,4z M107.5,111c5.4,7.5,10.7,15.2,10.9,15.4c0,0.1,0.1,0.3,0.1,0.5c-0.4,0.2-1,0-1.6-0.7
		c-0.1-0.2-1-1.1-2.3-2.5L114,123c-6.2-6.6-20.6-22.2-25.3-27.9c-2.9-3.5-6.6-8-9.8-11.9l-0.3-0.4c-3.1-3.8-5.4-6.6-5.7-6.8
		c-1-0.8-47.7-58.8-59.2-73.1c0,0,0-0.1,0-0.1c0,0,0-0.1,0-0.1l0,0c-0.8-0.7-1.6-1.3-2.4-1.7c4,0.4,6.7,0.7,7.7,0.8
		c1.6,0.2,6.8,6.7,9.4,10.1c0,0,0,0,0,0l1.8,2.2C64,55.2,82,77.3,82.4,77.6l0.1,0.1c2.6,3.4,11.3,14.6,13,16.5
		C96.2,95.2,100.8,101.5,107.5,111z M99.3,124.9c0,0,0,0.1,0,0.1l0,0c-0.1,0.2-0.3,0.6-0.1,0.9c0.2,0.2,0.6,0.5,1.1,0.7l0,0
		c0.3,0.2,0.7,0.4,0.8,0.5c0,0,0,0.1-0.2,0.2c-0.2,0.2-0.5,0.6-0.2,0.9c0.2,0.2,0.7,0.5,1.2,0.7l0,0c0.2,0.1,0.8,0.4,0.8,0.5
		c0,0,0,0,0,0c0,0-0.1,0.2-0.1,0.2l0,0c-0.2,0.2-0.4,0.6-0.2,0.9c0.2,0.3,0.7,0.6,1.2,0.8l0,0c0.3,0.2,0.6,0.3,0.8,0.4
		c0,0.1-0.1,0.2-0.2,0.2c-0.2,0.2-0.5,0.6-0.3,1c0.1,0.2,0.4,0.4,0.9,0.6c0.1,0,0.1,0.1,0.2,0.1l0,0c0,0,0,0.1,0.1,0.1
		c0,0,0.1,0,0.1,0c0.1,0,0.2,0.1,0.2,0.1c0.3,0.1,0.4,0.2,0.6,0.3c0,0,0.1,0.1,0.1,0.1c0,0,0,0.1-0.2,0.4c-0.2,0.3-0.4,0.7-0.2,1
		c0.2,0.3,0.7,0.6,1.3,0.9l0,0c0.2,0.1,0.6,0.3,0.6,0.4c0,0-0.1,0.1-0.2,0.3c-0.2,0.3-0.5,0.6-0.2,1c0.2,0.2,0.7,0.5,1.2,0.8l0,0
		c0.3,0.1,0.7,0.4,0.8,0.5c0,0,0,0.1-0.2,0.4c-0.2,0.3-0.4,0.7-0.2,1c0.2,0.2,0.6,0.5,1.1,0.7l0,0c0.3,0.2,0.8,0.4,0.9,0.5
		c0,0,0,0,0,0c0,0.1-0.2,0.4-0.3,0.5c0,0,0,0,0,0c-0.2,0.3-0.4,0.6-0.2,0.8c0.2,0.3,0.8,0.6,1.3,0.8l0.1,0c0.2,0.1,0.5,0.3,0.6,0.4
		c0,0-0.1,0.2-0.3,0.5l0,0c-0.2,0.4-0.4,0.6-0.2,0.8c0.2,0.3,0.7,0.5,1.3,0.8c0.3,0.2,0.8,0.4,0.9,0.5c0,0,0,0.1-0.2,0.4
		c0,0,0,0,0,0c-0.2,0.3-0.4,0.6-0.2,0.8c0.2,0.3,0.9,0.7,1.4,1l0,0c0.2,0.1,0.6,0.3,0.7,0.4c0,0.1-0.1,0.2-0.2,0.5c0,0,0,0,0,0l0,0
		c-0.1,0.2-0.2,0.4-0.3,0.6c-0.1,0.3,0,0.5,0.3,0.9c0.1,0.2,0.4,0.5,0.7,1.1c0.4,0.7,0.5,1.1,0.5,1.2c-2.9-1.4-32.6-33.6-38.5-40.8
		c-5.1-6.2-12.7-15.3-15.5-18.8L62,93.9l-0.1-0.1c0,0-2.1-2-2.3-4.9l0,0c0.7,0.8,2.3,2.5,3.3,3.9c1.1,1.5,16.4,20.1,26.6,31.8
		c2.2,2.5,11.5,12.2,13,13.6c1.1,1.1,1.8,0.9,2.1,0.7c0.3-0.2,0.4-0.6,0.4-1.1c0-0.3-0.1-0.6-0.2-0.8c-1.3-2.4-16.9-25.5-22.4-33.1
		C76.5,96,70.7,88.8,70,88.1l0,0c0,0,0,0-0.1,0c0,0,0,0-0.1,0l-0.2,0.2c0,0,0,0.1,0,0.1l0,0c0.7,0.7,6.5,7.9,12.2,15.8
		c5.5,7.6,21.1,30.6,22.4,33c0.3,0.5,0.3,1.1,0,1.3c-0.2,0.1-0.5,0.1-0.9-0.2c0-0.1,0-0.2,0-0.3c0-0.4-0.3-1.1-0.8-1.9
		c-0.9-1.4-8.2-12.5-9.1-13.8c-0.6-0.9-11-15-17.8-24.4l-1.4-1.9c-3.8-5.2-6.9-9.4-7.6-10.4c-2.1-2.9-46.7-59-53.5-67.6
		c0.1,0.1,0.3,0.2,0.4,0.3l0.2,0.1c0.1,0,0.1,0.1,0.2,0.1c1.2,0.9,4.2,2.1,4.6,2.3l44.4,56l0,0c0,0,0,0,0,0l0.4,0.1
		c0.4,0.5,6.3,8.1,6.6,8.6l0.1,0.2c0.4,0.6,1.3,1.6,2.6,3.7l0,0c2.1,2.2,16.1,21.5,22,29.7l0.2,0.3c1.7,2.4,2.6,3.6,2.7,3.7
		c0.3,0.4,0.8,0.6,1.3,0.8c0.3,0.1,0.7,0.3,0.7,0.4c0,0.1-0.1,0.2-0.1,0.3L99.3,124.9C99.3,124.9,99.3,124.9,99.3,124.9z M7.4,20.7
		L7.4,20.7C7.5,20.8,7.5,20.8,7.4,20.7l0.6,0l49,62.7l0,0.6c0,0,0,0,0,0.1l0.3,0.4c0.3,0.5,0.9,1.3,1.2,3.7l-53.7-69L7.4,20.7z
		 M61.6,94.1c0,0,0,0.1,0.1,0.1l0.5,0.6c6.9,8.3,12.3,14.8,15.9,19.2c3,3.7,12.5,14.1,21,23.2c4.7,5.1,8.9,9.3,11.9,12.4
		c2.9,2.9,4.7,4.6,5.6,5.1c-0.2,0-0.4,0.1-0.6,0c-0.6-0.2-9.3-9-23.1-23.7c-4-4.2-19.3-21.3-25-28.8c-1.6-2.1-3-3.9-4.2-5.4l0,0
		c-2.6-3-4.3-5-4.4-7.3c0,0,0-0.1,0-0.1C59.6,92.2,61.5,94.1,61.6,94.1z M66.3,86c0.7,0.9,3.2,4.3,7.7,10.5l0.3,0.4
		c7.2,9.9,18.2,24.8,18.8,25.7c0.9,1.4,8.3,12.4,9.1,13.8c0.6,0.9,0.7,1.4,0.7,1.7c-0.1,0-0.1-0.1-0.2-0.1
		c-1.5-1.5-10.8-11.1-12.9-13.6C79.5,112.6,64.3,94,63.3,92.6c-1-1.4-2.6-3.1-3.4-4l-0.2-0.2c-0.1-0.1-0.2-0.2-0.2-0.3l0,0
		c-0.1-1.3-0.7-2.5-1.2-3.3c-0.2-0.3-0.3-0.5-0.4-0.7l-0.2-0.3l0-0.6l0,0c0,0,0,0,0,0L8.3,20.3l-0.1-0.1c0,0,0,0-0.1,0l-0.6,0
		L4,18.1l-0.3-0.3c-0.2-0.4-0.9-1.8-1.8-2.8C1,13.8-1.3,7.7,2.8,3c0.2-0.2,2.2-2.4,5.1-2.5c0.2,0,0.4,0,0.7,0c0,0,0.1,0,0.3,0
		c1.5,0.2,2.9,1,4.3,2.3c0,0,0,0.1,0.1,0.1c0,0,0,0,0,0c-0.8,0.2-2.8,0.8-3.8,3.3c-0.4,1-0.7,2.1-0.8,3.1c-0.4,3.1,0.6,5.7,3,7.8
		l0.4,0.4C20.8,28.5,64.2,83.2,66.3,86z M122.5,128.8L122.5,128.8L122.5,128.8L122.5,128.8z"/>
</g>
</svg>
