<?xml version="1.0" encoding="utf-8"?>
<!-- Generator: Adobe Illustrator 19.0.0, SVG Export Plug-In . SVG Version: 6.00 Build 0)  -->
<svg version="1.1" id="Layer_1" xmlns="http://www.w3.org/2000/svg" xmlns:xlink="http://www.w3.org/1999/xlink" x="0px" y="0px"
	 viewBox="0 0 398.9 526.9" style="enable-background:new 0 0 398.9 526.9;" xml:space="preserve">
<style type="text/css">
	.st0{fill:#F3F4F5;}
	.st1{fill:none;stroke:#F3F4F5;stroke-width:0.4;stroke-miterlimit:10;}
	.st2{fill:none;stroke:#FFFFFF;stroke-width:0.5;stroke-miterlimit:10;}
	.st3{fill:#FFFFFF;}
</style>
<g id="XMLID_2_">
	<g id="XMLID_17_">
		<g id="XMLID_19_">
			<path id="XMLID_117_" class="st0" d="M249.6,15.4l0.5-0.1c0-0.1-1.9-11.3-2.1-13.2c-0.2-1.8-1.8-2.2-2.7-2.1l-5,0v0.6h5
				c0.1,0,1.9-0.1,2.1,1.6C247.7,4.2,249.5,15,249.6,15.4z"/>
			<path id="XMLID_116_" class="st0" d="M270.8,34.6c2.2,0,9.5,0,19.7-0.5c9.1-0.4,22.8-8.4,25.3-11.4c1.3-1.5,1.3-6,1.3-6.1v-0.2
				l-0.2-0.1c-1.5-0.7-48.2-1.3-53.5-1.3h-23v0.6h23c20.2,0.2,50.4,0.7,53.1,1.2c0,1.5-0.3,4.5-1.2,5.5
				c-2.4,2.9-16.1,10.8-24.9,11.2c-12.3,0.5-20.3,0.5-20.4,0.5l0,0.6C270.1,34.6,270.3,34.6,270.8,34.6z"/>
			<path id="XMLID_115_" class="st0" d="M270.3,37.6l0-0.3v-3.4l-0.2-0.1c-1.3-0.5-12.4-0.5-25.8-0.5c-2.5,0-4.7,0-6.5,0v0.6
				c1.8,0,4,0,6.5,0c9.4,0,23.4-0.1,25.4,0.4V37c-1.3-0.1-6.9-0.4-31.9-0.4v0.6c29.7,0,32.1,0.4,32.2,0.4L270.3,37.6z"/>
			<path id="XMLID_112_" class="st0" d="M252.3,37.7c15.7,0,17.4-0.5,17.6-0.6l0.2,0.2h0l0,0l0.2-0.2l0.1,0.3
				c-0.1,0.3-0.3,0.8-18,0.8V37.7z M269.9,37.5l0.2-0.2L269.9,37.5z"/>
			<path id="XMLID_111_" class="st0" d="M233.7,15.4c0.1-0.5,1.9-11.3,2.1-13.3c0.2-1.7,2-1.6,2.1-1.6l5,0V0l-5,0
				c-0.8-0.1-2.5,0.3-2.6,2.1c-0.2,2-2.1,13.1-2.1,13.2L233.7,15.4z"/>
			<path id="XMLID_110_" class="st0" d="M212.5,34.6c0.5,0,0.7,0,0.7,0l0-0.6c-0.1,0-8.1,0.1-20.4-0.5c-8.8-0.4-22.5-8.3-24.9-11.2
				c-0.9-1-1.2-4-1.2-5.5c2.7-0.5,32.9-1,53.1-1.2h23v-0.6h-23c-5.3,0.1-52,0.6-53.5,1.3l-0.2,0.1v0.2c0,1.2,0.2,4.8,1.3,6.1
				c2.5,3,16.2,11,25.3,11.4C203,34.6,210.3,34.6,212.5,34.6z"/>
			<path id="XMLID_109_" class="st0" d="M212.9,37.7l0.3-0.1c0.1,0,2.4-0.4,32.1-0.4v-0.6c-25,0-30.7,0.3-31.9,0.4v-2.7
				c2-0.5,16-0.4,25.4-0.4c2.5,0,4.7,0,6.5,0v-0.6c-1.8,0-4,0-6.5,0c-13.4-0.1-24.5-0.1-25.8,0.5l-0.2,0.1V37.7z"/>
			<path id="XMLID_106_" class="st0" d="M212.9,37.4l0.1-0.3l0.2,0.3l0.1-0.2c0.2,0.1,1.8,0.5,17.4,0.5v0.6
				C213.2,38.2,213,37.7,212.9,37.4z M213.2,37.4l0.1,0.2c0.1,0,0.1-0.1,0.1-0.2L213.2,37.4z"/>
			<path id="XMLID_105_" class="st0" d="M240,38.1v-0.4h12.3c0,0,0.1,0.1,0.1,0.1c0.1,0.2,0.1,0.4,0,0.6c-0.6,1.3-0.9,2.9-0.9,4.9
				c0,3.5,2.4,5.2,2.9,5.5c0.1,0.1,0.2,0.2,0.2,0.4V50c0,0.2-0.1,0.3-0.2,0.4c-0.6,0.4-3.7,2.7-3.7,6.6c0,3.8,3.1,5.8,3.7,6.2
				c0.1,0.1,0.2,0.2,0.2,0.4v0.7c0,0.1-0.1,0.3-0.2,0.4c-0.6,0.5-3.7,3-3.7,6.8c0,3.7,3.1,5.8,3.7,6.2c0.1,0.1,0.2,0.2,0.2,0.4v0.8
				c0,0.1-0.1,0.3-0.2,0.4c-0.5,0.4-4.5,3.6-4.5,10.8c0,2.5,0.3,5.9,0.7,10.6c0.8,10.3,2.1,25.9,2.1,50.6l0,1.4
				c0,9.9-0.8,17.6-1.5,25c-0.7,6.9-1.3,13.4-1.3,21.1c0,6.5,4.1,10.5,4.6,11c0.1,0.1,0.1,0.2,0.1,0.3v0.9c0,0.2-0.1,0.3-0.2,0.4
				c-0.6,0.4-3.8,2.4-3.8,6.5c0,3.5,3.2,5.8,3.9,6.2c0.1,0.1,0.2,0.2,0.2,0.4v0.8c0,0.2-0.1,0.3-0.2,0.4c-0.6,0.4-3.9,2.8-3.9,6.5
				c0,3.7,3.2,5.8,3.8,6.2c0.1,0.1,0.2,0.2,0.2,0.4v0.8c0,0.2-0.1,0.3-0.2,0.4c-0.5,0.4-3.1,2.3-3.1,6.2c0,2.9,1.2,4.5,1.2,4.5
				l-0.4,0.3c-0.1-0.1-1.3-1.7-1.3-4.8c0-4.1,2.7-6.1,3.3-6.6v-0.7c-0.8-0.5-4.1-2.8-4.1-6.6c0-3.9,3.3-6.4,4.1-7v-0.7
				c-0.8-0.5-4.1-2.9-4.1-6.6c0-4.3,3.3-6.5,4.1-7l0-0.8c-0.5-0.5-4.7-4.6-4.7-11.4c0-7.8,0.6-14.3,1.3-21.2
				c0.7-7.4,1.5-15.1,1.5-24.9l0-1.4c0-24.6-1.3-40.2-2.1-50.5c-0.4-4.7-0.7-8.2-0.7-10.7c0-7.2,3.8-10.6,4.7-11.2v-0.7
				c-0.7-0.5-3.9-2.7-3.9-6.7c0-4,3.2-6.6,3.9-7.2v-0.6c-0.7-0.4-3.9-2.6-3.9-6.6c0-4.1,3.2-6.5,3.9-7v-0.7
				c-0.6-0.4-3.2-2.2-3.2-5.9c0-2.1,0.3-3.8,1-5.1l-0.1-0.1H240z"/>
			<path id="XMLID_104_" class="st0" d="M254.2,239.5L254.2,239.5L254.2,239.5z"/>
			<path id="XMLID_103_" class="st0" d="M254.2,210.9L254.2,210.9C254.2,210.9,254.2,210.9,254.2,210.9z"/>
			<path id="XMLID_102_" class="st0" d="M254.2,64.2L254.2,64.2L254.2,64.2z"/>
			<path id="XMLID_101_" class="st0" d="M228.4,50.4c-0.1-0.1-0.2-0.2-0.2-0.4v-0.8c0-0.2,0.1-0.3,0.2-0.4c0.5-0.3,2.9-2,2.9-5.5
				c0-2-0.3-3.6-0.9-4.9c-0.1-0.2-0.1-0.4,0-0.6c0,0,0.1-0.1,0.1-0.1h12.3v0.4H231l-0.1,0.1c0.7,1.3,1,3,1,5.1
				c0,3.7-2.5,5.6-3.2,5.9v0.7c0.7,0.5,3.9,3,3.9,7c0,4.1-3.2,6.2-3.9,6.6v0.6c0.7,0.6,3.9,3.2,3.9,7.2c0,4-3.2,6.2-3.9,6.7v0.7
				c0.9,0.7,4.7,4,4.7,11.2c0,2.5-0.3,5.9-0.7,10.7c-0.8,10.3-2.1,25.9-2.1,50.5v1.4c0,9.8,0.8,17.5,1.5,24.9
				c0.7,6.9,1.3,13.4,1.3,21.2c0,6.8-4.3,10.9-4.7,11.3v0.9c0.8,0.5,4.1,2.7,4.1,7c0,3.7-3.3,6.1-4.1,6.6v0.7c0.8,0.5,4.1,3.1,4.1,7
				c0,3.9-3.3,6.2-4.1,6.6v0.7c0.6,0.4,3.3,2.5,3.3,6.6c0,3.1-1.3,4.7-1.3,4.8l-0.4-0.3c0,0,1.2-1.6,1.2-4.5c0-3.9-2.6-5.8-3.1-6.2
				c-0.1-0.1-0.2-0.2-0.2-0.4v-0.8c0-0.2,0.1-0.3,0.2-0.4c0.6-0.4,3.9-2.5,3.9-6.2c0-3.7-3.2-6.1-3.9-6.5c-0.1-0.1-0.2-0.2-0.2-0.4
				v-0.8c0-0.2,0.1-0.3,0.2-0.4c0.6-0.4,3.9-2.7,3.9-6.2c0-4.1-3.2-6.1-3.8-6.5c-0.1-0.1-0.2-0.2-0.2-0.4V210c0-0.1,0.1-0.3,0.1-0.3
				c0.5-0.4,4.6-4.4,4.6-11c0-7.8-0.6-14.2-1.3-21.1c-0.7-7.4-1.5-15.1-1.5-25v-1.4c0-24.7,1.3-40.3,2.1-50.6
				c0.4-4.7,0.7-8.1,0.7-10.6c0-7.2-4.1-10.5-4.5-10.8c-0.1-0.1-0.2-0.2-0.2-0.4v-0.8c0-0.2,0.1-0.3,0.2-0.4
				c0.6-0.4,3.7-2.5,3.7-6.2c0-3.8-3.1-6.3-3.7-6.8c-0.1-0.1-0.2-0.2-0.2-0.4v-0.7c0-0.2,0.1-0.3,0.2-0.4c0.6-0.4,3.7-2.4,3.7-6.2
				C232.1,53.1,229.1,50.8,228.4,50.4z"/>
			<path id="XMLID_100_" class="st0" d="M228.7,239.5C228.7,239.5,228.7,239.5,228.7,239.5S228.7,239.5,228.7,239.5z"/>
			<path id="XMLID_99_" class="st0" d="M228.7,225.2C228.7,225.2,228.7,225.2,228.7,225.2C228.7,225.2,228.7,225.2,228.7,225.2z"/>
			<path id="XMLID_98_" class="st1" d="M240,252"/>
			<path id="XMLID_97_" class="st0" d="M207.9,272.7h0.1c4.1,0.4,16.3,0.7,33.4,0.7c17,0,29.3-0.3,33.4-0.7h0.3c0,0.2,0,0.3,0.1,0.5
				c-1.4,0.2-4,0.3-8.9,0.5c-6.6,0.2-15.4,0.3-24.8,0.3c-9.4,0-18.2-0.1-24.8-0.3c-4.8-0.1-7.4-0.3-8.8-0.4
				C207.9,273.1,207.9,272.9,207.9,272.7z"/>
			<path id="XMLID_96_" class="st0" d="M208.8,274.8c4,0.4,16,0.7,32.7,0.7c16.7,0,28.6-0.3,32.7-0.7h0.2c-0.1,0.1-0.1,0.1-0.2,0.2
				c-0.1,0.1-0.2,0.3-0.2,0.4c-1.5,0.1-4,0.3-8.2,0.4c-6.5,0.2-15.1,0.3-24.3,0.3c-9.2,0-17.8-0.1-24.3-0.3
				c-4.2-0.1-6.7-0.3-8.2-0.4C208.9,275.2,208.8,275,208.8,274.8L208.8,274.8z"/>
			<path id="XMLID_95_" class="st0" d="M266,299.9h0.6v-3.5l-0.1-0.1c0,0-2.9-1.7-2.9-7c0,0,0.2-3.3,2.2-5.2
				c2.1-2.1,8.3-8.4,8.3-8.5c0,0,1.3-1.1,1.4-2.3c0-0.5-0.1-1-0.5-1.4c-1.4-1.4-10.7-10.6-10.8-10.7c0,0-0.8-0.6-1.8-0.6
				c-0.7,0-7.9-2.1-7.9-8.9c0-0.5-0.3-0.7-0.3-0.8l-0.3,0.4c0,0,0.1,0.1,0.1,0.3c0,6.9,7.2,9.5,8.5,9.5c0.8,0,1.4,0.5,1.4,0.5
				c0.1,0.1,9.4,9.3,10.7,10.7c0.3,0.3,0.4,0.6,0.4,0.9c-0.1,1-1.2,1.9-1.2,1.9c-0.1,0.1-6.3,6.4-8.3,8.5c-2.2,2.1-2.4,5.5-2.4,5.6
				c0,5.1,2.4,7,3.1,7.5V299.9z"/>
			<path id="XMLID_94_" class="st0" d="M216.3,299.8h0.6v-3c0.6-0.4,3.1-2.3,3.1-7.4c0-0.2-0.2-3.5-2.4-5.6
				c-2.1-2.1-8.3-8.4-8.3-8.5c0,0-1.2-1-1.2-1.9c0-0.4,0.1-0.7,0.4-0.9c1.4-1.4,10.7-10.6,10.8-10.7l0,0c0,0,0.6-0.5,1.4-0.5
				c1.3,0,8.5-2.6,8.5-9.4c0-0.2,0.1-0.3,0.1-0.3l-0.3-0.4c0,0-0.3,0.3-0.3,0.8c0,6.8-7.2,8.9-7.9,8.9c-1,0-1.7,0.6-1.7,0.6
				c-0.1,0.1-9.4,9.3-10.8,10.7c-0.4,0.4-0.6,0.9-0.5,1.4c0.1,1.2,1.3,2.2,1.4,2.3c0,0,6.2,6.4,8.3,8.5c2,2,2.2,5.2,2.2,5.3
				c0,5.4-2.9,7-2.9,7l-0.1,0.1L216.3,299.8z"/>
			<path id="XMLID_93_" class="st0" d="M233.5,300.8c2.7,0,4.7,0,5,0h5.4v-0.6h-5.5c-6.8,0.1-20,0-21.8-0.6l-0.2,0.5
				C218,300.7,227.5,300.8,233.5,300.8z"/>
			<path id="XMLID_92_" class="st0" d="M249.4,300.8c6,0,15.4-0.1,17-0.7l-0.2-0.5c-1.8,0.6-15,0.7-21.8,0.6H239v0.6h5.4
				C244.7,300.8,246.7,300.8,249.4,300.8z"/>
			<path id="XMLID_91_" class="st0" d="M216.5,296.8h0.6c4.1,0.2,12.9,0.4,24.4,0.4c11.5,0,20.2-0.2,24.4-0.4h0.7c0,0.2,0,0.3,0,0.5
				c-1.2,0.1-3.1,0.2-5.8,0.2c-5.1,0.1-12,0.2-19.2,0.2c-7.3,0-14.1-0.1-19.2-0.2c-2.7-0.1-4.6-0.2-5.8-0.2
				C216.5,297.1,216.5,296.9,216.5,296.8z"/>
			<path id="XMLID_90_" class="st0" d="M219.3,261.1h1.7c3.2,0.2,10.6,0.4,20.5,0.4c9.9,0,17.3-0.2,20.5-0.4h1.2
				c0.1,0.2,0.3,0.3,0.5,0.4c-0.7,0.1-2.3,0.3-6.3,0.4c-4.2,0.1-9.8,0.2-15.8,0.2c-6,0-11.6-0.1-15.8-0.2c-4.7-0.1-6.1-0.3-6.6-0.5
				C219.1,261.3,219.2,261.2,219.3,261.1z"/>
			<path id="XMLID_89_" class="st0" d="M241.3,252.1h5.3c7.6-0.1,7.6-0.6,7.7-0.9c0-0.3-0.2-0.5-1.8-0.8l-0.2,0.4
				c0.4,0.1,0.8,0.2,1,0.3c-1.2,0.2-4,0.3-6.6,0.4h-5.3V252.1z"/>
			<path id="XMLID_88_" class="st0" d="M241.8,252.1v-0.6h-5.4c-2.6,0-5.5-0.2-6.7-0.4c0.2,0,0.6-0.2,1-0.3l-0.2-0.4
				c-1.6,0.3-1.9,0.4-1.8,0.8c0,0.3,0.1,0.8,7.7,0.9H241.8z"/>
			<g id="XMLID_85_">
				<rect id="XMLID_87_" x="228.6" y="48.9" class="st0" width="25.8" height="0.3"/>
				<rect id="XMLID_86_" x="228.6" y="49.9" class="st0" width="25.8" height="0.3"/>
			</g>
			<g id="XMLID_82_">
				<rect id="XMLID_84_" x="228.6" y="63.2" class="st0" width="25.8" height="0.3"/>
				<rect id="XMLID_83_" x="228.6" y="64.3" class="st0" width="25.8" height="0.3"/>
			</g>
			<g id="XMLID_79_">
				<rect id="XMLID_81_" x="228.6" y="77.8" class="st0" width="25.8" height="0.3"/>
				<rect id="XMLID_80_" x="228.6" y="78.8" class="st0" width="25.8" height="0.3"/>
			</g>
			<g id="XMLID_66_">
				<path id="XMLID_78_" class="st0" d="M277.3,266.8c0.1,0,0.1,0,0.2-0.1c0.2-0.2,0.2-0.4-0.9-1.5c-0.6-0.7-1.5-1.6-2.4-2.5
					c-0.9-0.9-1.8-1.8-2.5-2.4c-1.1-1-1.3-1.1-1.5-0.9c-0.2,0.2-0.4,0.4,3.3,4c0.9,0.9,1.8,1.8,2.5,2.4
					C276.8,266.5,277.1,266.8,277.3,266.8z"/>
				<polygon id="XMLID_77_" class="st0" points="274.3,271.6 277.5,268.5 277.6,266.6 277,266.6 276.9,268.3 273.9,271.2 				"/>
				<polygon id="XMLID_76_" class="st0" points="265.4,263.1 268.6,259.9 270.5,259.8 270.4,259.3 268.4,259.4 265,262.7 				"/>
				<path id="XMLID_73_" class="st0" d="M269.9,265.6c0-0.7,0.6-1.3,1.3-1.3c0.7,0,1.3,0.6,1.3,1.3c0,0.7-0.6,1.3-1.3,1.3
					C270.5,266.9,269.9,266.3,269.9,265.6z M270.5,265.6c0,0.4,0.3,0.7,0.7,0.7c0.4,0,0.7-0.3,0.7-0.7c0-0.4-0.3-0.7-0.7-0.7
					C270.8,264.9,270.5,265.2,270.5,265.6z"/>
				<path id="XMLID_70_" class="st0" d="M274.2,270.3c-0.2-0.2-0.3-0.4-0.2-0.7c0-0.3,0.2-0.5,0.4-0.8l0,0c0.5-0.6,1.1-0.8,1.5-0.5
					c0.2,0.2,0.3,0.4,0.2,0.7c0,0.3-0.2,0.5-0.4,0.8c-0.3,0.3-0.6,0.6-1,0.6c0,0-0.1,0-0.1,0C274.5,270.4,274.3,270.4,274.2,270.3z
					 M274.8,269.1L274.8,269.1c-0.1,0.2-0.2,0.4-0.3,0.5c0,0.1,0,0.2,0,0.2c0,0,0.1,0,0.1,0c0.1,0,0.4-0.1,0.6-0.4
					c0.1-0.2,0.2-0.4,0.3-0.5c0-0.1,0-0.2,0-0.2c0,0,0,0-0.1,0C275.3,268.7,275,268.8,274.8,269.1z"/>
				<path id="XMLID_67_" class="st0" d="M266.8,262.6c-0.3-0.3-0.2-0.9,0.2-1.5c0.2-0.2,0.4-0.4,0.7-0.5c0.4-0.2,0.6-0.1,0.7,0
					c0.3,0.3,0.2,0.9-0.2,1.5c-0.3,0.4-0.7,0.7-1.1,0.7C267,262.7,266.9,262.7,266.8,262.6z M267.5,261.5c-0.3,0.4-0.3,0.6-0.3,0.7
					c0,0,0.3-0.1,0.6-0.5c0.3-0.4,0.3-0.7,0.3-0.7c0,0,0,0,0,0C268,261,267.8,261.1,267.5,261.5z"/>
			</g>
			<g id="XMLID_47_">
				<path id="XMLID_63_" class="st0" d="M211.6,476.8c-12.8-0.6-12.8-1.3-12.8-1.7s0-1.1,12.8-1.7c8.1-0.4,18.9-0.6,30.4-0.6
					c11.5,0,22.2,0.2,30.4,0.6c12.8,0.6,12.8,1.3,12.8,1.7s0,1.1-12.8,1.7c-8.1,0.4-18.9,0.6-30.4,0.6
					C230.5,477.4,219.7,477.2,211.6,476.8z M241.9,473.3c-23.5,0-40.5,0.9-42.5,1.7c2,0.9,19,1.8,42.5,1.8s40.5-0.9,42.5-1.8
					C282.5,474.2,265.5,473.3,241.9,473.3z"/>
				<path id="XMLID_62_" class="st0" d="M216.7,299.6c0.1,0.2,0.2,0.4,0.4,0.5c-0.8,0.1-1.4,0.2-1.8,0.3c2.2,0.5,12.6,1,26.7,1
					c14,0,24.5-0.5,26.7-1c-0.5-0.1-1.4-0.2-2.7-0.3c0.2-0.1,0.3-0.3,0.4-0.5c3.2,0.3,3.2,0.6,3.2,0.9c0,0.4,0,0.8-8.2,1.2
					c-5.2,0.2-12,0.4-19.3,0.4s-14.1-0.1-19.3-0.4c-8.2-0.4-8.2-0.8-8.2-1.2C214.4,300.2,214.4,299.9,216.7,299.6z"/>
				<path id="XMLID_61_" class="st0" d="M215.2,305.3c2.6,0.5,12.9,1,26.7,1c13.8,0,24.2-0.5,26.7-1h0.5c-0.1,0.1-0.2,0.2-0.3,0.3
					c-0.3,0-0.6,0.1-0.8,0.3c-1.2,0.2-3.2,0.3-6.7,0.5c-5.2,0.2-12.1,0.4-19.5,0.4c-7.4,0-14.3-0.1-19.5-0.4c-3.8-0.2-5.8-0.4-7-0.5
					c-0.1-0.2-0.3-0.4-0.5-0.6H215.2z"/>
				<path id="XMLID_60_" class="st0" d="M288.1,478.7c0.8,0,1.5-0.2,2-0.8l-0.4-0.4c-0.6,0.7-2,0.6-2.7,0.4c-1-0.2-1.3-0.5-1.3-1.3
					c0-1-0.2-1.9-1.1-2.1l-0.1,0.5c0.5,0.1,0.6,0.7,0.7,1.6c0.1,1.3,0.9,1.6,1.8,1.8C287.3,478.6,287.7,478.7,288.1,478.7z"/>
				<path id="XMLID_59_" class="st0" d="M241.9,482c4.5,0,31.7-0.8,42.9-1.5c3.3-0.4,4.8-1.7,5.8-3.2c1.2-1.5,12.7-17,12.8-17.1
					c0.1-0.1,2.5-3.5,2.5-6.1c0-2.7-1.6-4.8-2.6-5.7c-0.9-0.9-10.1-9.5-11.2-10.6c0.1-1,0.6-7.3-2-9.7c-0.3-0.3-29.7-28-29.7-51.1
					c0-0.1-1.2-11.7,1.2-22.3c0.9-4.1,1.8-6.9,2.4-9.2c1.1-3.7,1.7-5.9,1.7-9.9v-25.8l0,0c0,0,0.4-2.9,2.6-3.8
					c1.9-0.8,1.9-2.2,1.8-3.1c0-0.1,0-0.2,0-0.3c0-0.7,0-2.5-2.3-2.7l-0.1,0.5c1.6,0.2,1.8,1.2,1.8,2.2c0,0.1,0,0.2,0,0.3
					c0,0.9,0.1,2-1.5,2.6c-2.6,1.1-3,4.2-3,4.3l0,25.8c0,3.9-0.6,6.1-1.7,9.7c-0.7,2.3-1.5,5.1-2.4,9.2c-2.4,10.7-1.3,22.4-1.3,22.5
					c0,23.3,29.6,51.2,29.9,51.4c2.5,2.4,1.8,9.3,1.8,9.4l0,0.1l0.1,0.1c0.1,0.1,10.3,9.7,11.3,10.7c0.9,0.9,2.4,2.8,2.4,5.3
					c0,2.5-2.4,5.8-2.4,5.8c-0.1,0.2-11.6,15.6-12.8,17.1c-1.2,1.5-2.5,2.6-5.5,2.9c-11.2,0.8-38.4,1.5-42.9,1.5V482z"/>
				<path id="XMLID_58_" class="st0" d="M241.1,454.2h13.3c1.7,0,42.5-0.4,50.6-2.8l-0.2-0.5c-8,2.4-50,2.8-50.5,2.8h-13.3V454.2z"
					/>
				<path id="XMLID_57_" class="st0" d="M241.1,462.4h13.1c1.7,0,42-0.4,50-2.8l-0.2-0.5c-7.9,2.4-49.4,2.8-49.9,2.8h-13.1V462.4z"
					/>
				<path id="XMLID_56_" class="st0" d="M241.9,432.2c26.8,0,45.6-1,49.1-2.6l-0.2-0.5c-3.4,1.5-22.5,2.5-48.8,2.5V432.2z"/>
				<path id="XMLID_55_" class="st0" d="M241.7,440.8c27.3,0,47.1-1,50.5-2.6l-0.2-0.5c-3.3,1.5-23.5,2.5-50.3,2.5V440.8z"/>
				<g id="XMLID_48_">
					<path id="XMLID_54_" class="st0" d="M195.7,478.7c0.4,0,0.8-0.1,1.2-0.1c0.8-0.2,1.7-0.5,1.8-1.8c0-1,0.2-1.5,0.7-1.6l-0.1-0.5
						c-0.9,0.3-1,1.2-1.1,2.1c0,0.8-0.4,1.1-1.3,1.3c-0.7,0.1-2.1,0.3-2.7-0.4l-0.4,0.4C194.2,478.5,195,478.7,195.7,478.7z"/>
					<path id="XMLID_53_" class="st0" d="M241.9,482v-0.6c-4.5,0-31.7-0.8-42.9-1.5c-2.9-0.3-4.3-1.4-5.4-2.9
						c-1.2-1.5-12.7-17-12.8-17.1c0,0-2.4-3.3-2.4-5.8c0-2.5,1.5-4.4,2.4-5.3c1-1,11.2-10.6,11.3-10.7l0.1-0.1l0-0.1
						c0-0.1-0.7-7,1.8-9.4c0.3-0.3,29.9-28.1,29.9-51.5c0-0.1,1.2-11.8-1.3-22.5c-0.9-4.1-1.8-6.9-2.4-9.2c-1.1-3.6-1.7-5.8-1.7-9.7
						v-25.8c0-0.2-0.4-3.2-3-4.3c-1.6-0.6-1.5-1.7-1.5-2.6c0-0.1,0-0.2,0-0.3c0-1,0.2-2,1.8-2.2l-0.1-0.5c-2.3,0.2-2.3,2.1-2.3,2.7
						c0,0.1,0,0.2,0,0.3c0,0.9-0.1,2.3,1.9,3.1c2.3,1,2.6,3.8,2.6,3.9l0,25.8c0,4,0.7,6.2,1.7,9.9c0.7,2.3,1.5,5.1,2.4,9.2
						c2.4,10.6,1.3,22.2,1.2,22.3c0,23.1-29.4,50.8-29.7,51.1c-2.5,2.4-2.1,8.7-2,9.7c-1.1,1.1-10.3,9.7-11.2,10.6
						c-1,1-2.6,3-2.6,5.7c0,2.7,2.4,6,2.5,6.1c0.1,0.2,11.6,15.6,12.8,17.1c1.1,1.4,2.5,2.8,5.8,3.2
						C210.2,481.2,237.4,482,241.9,482z"/>
					<path id="XMLID_52_" class="st0" d="M229.5,454.2h13.3v-0.6h-13.3c-0.4,0-42.4-0.4-50.5-2.8l-0.2,0.5
						C186.9,453.8,227.7,454.1,229.5,454.2z"/>
					<path id="XMLID_51_" class="st0" d="M229.6,462.4h13.1v-0.6h-13.1c-0.4,0-41.9-0.4-49.9-2.8l-0.2,0.5
						C187.6,462,227.9,462.3,229.6,462.4z"/>
					<path id="XMLID_50_" class="st0" d="M242.2,432.2v-0.6c-26.4,0-45.7-1-49.1-2.5l-0.2,0.5C196.3,431.2,215.6,432.2,242.2,432.2z
						"/>
					<path id="XMLID_49_" class="st0" d="M241.9,440.8v-0.6c-26.6,0-46.7-1-50-2.5l-0.2,0.5C195.1,439.8,214.9,440.8,241.9,440.8z"
						/>
				</g>
			</g>
			<g id="XMLID_30_">
				<path id="XMLID_44_" class="st0" d="M227.9,321.8v-0.2c0-1.2,0.9-2.1,2.1-2.1h23.8c1.2,0,2.1,0.9,2.1,2.1v0.2
					c0,1.2-0.9,2.1-2.1,2.1H230C228.9,323.9,227.9,322.9,227.9,321.8z M230,320c-0.9,0-1.6,0.7-1.6,1.6v0.2c0,0.9,0.7,1.6,1.6,1.6
					h23.8c0.9,0,1.6-0.7,1.6-1.6v-0.2c0-0.9-0.7-1.6-1.6-1.6H230z"/>
				<path id="XMLID_41_" class="st0" d="M227.9,315.8v-0.2c0-1.2,0.9-2.1,2.1-2.1h23.8c1.2,0,2.1,0.9,2.1,2.1v0.2
					c0,1.2-0.9,2.1-2.1,2.1H230C228.9,317.9,227.9,317,227.9,315.8z M230,314c-0.9,0-1.6,0.7-1.6,1.6v0.2c0,0.9,0.7,1.6,1.6,1.6
					h23.8c0.9,0,1.6-0.7,1.6-1.6v-0.2c0-0.9-0.7-1.6-1.6-1.6H230z"/>
				<path id="XMLID_38_" class="st0" d="M227.9,309.9v-0.2c0-1.2,0.9-2.1,2.1-2.1h23.8c1.2,0,2.1,0.9,2.1,2.1v0.2
					c0,1.2-0.9,2.1-2.1,2.1H230C228.9,312,227.9,311.1,227.9,309.9z M230,308.1c-0.9,0-1.6,0.7-1.6,1.6v0.2c0,0.9,0.7,1.6,1.6,1.6
					h23.8c0.9,0,1.6-0.7,1.6-1.6v-0.2c0-0.9-0.7-1.6-1.6-1.6H230z"/>
				<rect id="XMLID_37_" x="254.7" y="311.3" class="st0" width="0.6" height="2.9"/>
				<rect id="XMLID_36_" x="254.7" y="317.3" class="st0" width="0.6" height="2.7"/>
				<rect id="XMLID_35_" x="254.7" y="306.6" class="st0" width="0.6" height="1.7"/>
				<g id="XMLID_31_">
					<rect id="XMLID_34_" x="228.5" y="311.3" class="st0" width="0.6" height="2.9"/>
					<rect id="XMLID_33_" x="228.5" y="317.2" class="st0" width="0.6" height="2.9"/>
					<rect id="XMLID_32_" x="228.5" y="306.6" class="st0" width="0.6" height="1.7"/>
				</g>
			</g>
			<polygon id="XMLID_29_" class="st0" points="236.9,442.4 246.9,442.4 246.9,323.4 246.3,323.4 246.3,441.8 237.5,441.8 
				237.5,323.4 236.9,323.4 			"/>
			<g id="XMLID_26_">
				<rect id="XMLID_28_" x="228.6" y="209.8" class="st0" width="25.8" height="0.3"/>
				<rect id="XMLID_27_" x="228.6" y="210.8" class="st0" width="25.8" height="0.3"/>
			</g>
			<g id="XMLID_23_">
				<rect id="XMLID_25_" x="228.6" y="224.1" class="st0" width="25.8" height="0.3"/>
				<rect id="XMLID_24_" x="228.6" y="225.2" class="st0" width="25.8" height="0.3"/>
			</g>
			<g id="XMLID_20_">
				<rect id="XMLID_22_" x="228.6" y="238.5" class="st0" width="25.8" height="0.3"/>
				<rect id="XMLID_21_" x="228.6" y="239.5" class="st0" width="25.8" height="0.3"/>
			</g>
		</g>
		<path id="XMLID_18_" class="st1" d="M315.5,22.6c0,0-55.1-0.7-73.5-0.7c-18.7,0-74.3,0.7-74.3,0.7"/>
	</g>
	<g id="XMLID_3_">
		<g id="XMLID_15_">
			<path id="XMLID_16_" class="st2" d="M329,526.7c-12,0-24.3-1.2-34.4-2.2c-6.7-0.7-12.5-1.2-16.2-1.2h-88v-8h88
				c4.1,0,10,0.6,17,1.3c21,2.1,56.2,5.5,69.9-6c3.5-3,5.4-6.7,5.8-11.6c0.5-5.8-1.3-10.5-5.4-14.3c-12.9-11.9-46.8-12.9-74.7-8.5
				c-2.5,0.4-5.4,0.9-8.8,1.6c-20.1,3.8-50.4,9.5-67.3-3.6c-7-5.5-10.9-13.7-11.6-24.3c-0.5-9.1,2.2-16.5,8-22.1
				c11.2-10.6,33.2-13.8,67.4-9.8l3.1,0.4c23.8,2.8,63.7,7.6,91.8-16.8c27.4-23.7,21-71-15.9-117.8c-14.4-18.2-30.7-27.9-48.5-28.7
				c-16.7-0.8-28.1,7.6-32.9,10.8l-5.5-5.7c9.5-6.2,52.6-32.8,93.2,18.7c39.7,50.4,45.7,102.2,14.8,128.8
				c-30.8,26.6-74.5,21.4-98,18.6l-3.1-0.4c-31.3-3.6-51.8-1-61,7.7c-4.1,3.9-6,9.1-5.6,15.8c0.5,8.4,3.3,14.4,8.5,18.5
				c14,10.9,43.3,5.4,60.9,2.1c3.3-0.6,6.4-1.2,9-1.6c10-1.6,60.8-8.5,81.3,10.5c5.9,5.5,8.6,12.5,7.9,20.8
				c-0.5,7-3.5,12.7-8.7,17.1C361,524.5,345.2,526.7,329,526.7z"/>
		</g>
		<g id="XMLID_4_">
			<polygon id="XMLID_14_" class="st3" points="179,534.8 179,534.8 179,534.8 			"/>
			<path id="XMLID_13_" class="st2" d="M118.6,513.6c-3.7-0.1-57.5-0.8-68.7-0.4c-11.1,0.4-46.7,2.2-46.7,2.2v8
				c0,0,35.6,1.7,46.7,2.2c11.1,0.4,64.9-0.3,68.7-0.4s4.9,0.5,4.9,0.5v-6.3v-6.3C123.6,513.1,122.4,513.7,118.6,513.6z"/>
			<path id="XMLID_12_" class="st2" d="M3.2,515.3v8c0,0.8-0.7,1.5-1.5,1.5h0c-0.8,0-1.5-0.7-1.5-1.5v-8c0-0.8,0.7-1.5,1.5-1.5h0
				C2.6,513.8,3.2,514.5,3.2,515.3z"/>
			<path id="XMLID_11_" class="st2" d="M123.6,513.1v6.3v6.2c0.9-0.5,2.1-0.8,3.4-0.8c1.3,0,2.5,0.3,3.4,0.8v-6.3v-6.2
				c-0.9,0.5-2.1,0.8-3.4,0.8C125.6,513.9,124.4,513.6,123.6,513.1z"/>
			<path id="XMLID_10_" class="st2" d="M130.3,513.1v6.3v6.2c0.9-0.5,2.1-0.8,3.4-0.8c1.3,0,2.5,0.3,3.4,0.8v-6.3v-6.2
				c-0.9,0.5-2.1,0.8-3.4,0.8C132.4,513.9,131.2,513.6,130.3,513.1z"/>
			<path id="XMLID_9_" class="st2" d="M137.1,513.1v6.3v6.2c0.9-0.5,2.1-0.8,3.4-0.8c1.3,0,2.5,0.3,3.4,0.8v-6.3v-6.2
				c-0.9,0.5-2.1,0.8-3.4,0.8C139.1,513.9,137.9,513.6,137.1,513.1z"/>
			<path id="XMLID_8_" class="st2" d="M143.8,513.1v6.3v6.2c0.9-0.5,2.1-0.8,3.4-0.8c1.3,0,2.5,0.3,3.4,0.8v-6.3v-6.2
				c-0.9,0.5-2.1,0.8-3.4,0.8C145.9,513.9,144.7,513.6,143.8,513.1z"/>
			<path id="XMLID_7_" class="st2" d="M150.5,513.1v6.3v6.2c0.9-0.5,2.1-0.8,3.4-0.8c1.3,0,2.5,0.3,3.4,0.8v-6.3v-6.2
				c-0.9,0.5-2.1,0.8-3.4,0.8C152.6,513.9,151.4,513.6,150.5,513.1z"/>
			<path id="XMLID_6_" class="st2" d="M157.3,513.1v6.3v6.2c0.9-0.5,2.1-0.8,3.4-0.8c1.3,0,2.5,0.3,3.4,0.8v-6.3v-6.2
				c-0.9,0.5-2.1,0.8-3.4,0.8C159.4,513.9,158.2,513.6,157.3,513.1z"/>
			<path id="XMLID_5_" class="st2" d="M164.1,513.1v6.3v6.3c1.6-1,1.5-0.9,3.3-0.8c1.8,0,9.9,0.4,12.5,0.4c2.6,0,10.6-0.6,10.6-0.6
				v-5.2v-5.2c0,0-8-0.6-10.6-0.6c-2.6,0-10.7,0.4-12.5,0.4C165.6,514,165.7,514.1,164.1,513.1z"/>
		</g>
	</g>
</g>
</svg>
