<?xml version="1.0" encoding="utf-8"?>
<!-- Generator: Adobe Illustrator 19.0.0, SVG Export Plug-In . SVG Version: 6.00 Build 0)  -->
<svg version="1.1" id="Layer_1" xmlns="http://www.w3.org/2000/svg" xmlns:xlink="http://www.w3.org/1999/xlink" x="0px" y="0px"
	 viewBox="0 0 167 217.6" style="enable-background:new 0 0 167 217.6;" xml:space="preserve">
<style type="text/css">
	.st0{fill:#FFFFFF;}
</style>
<path class="st0" d="M164.7,117.3c-4.8-19.9-17-36.8-34.4-47.6l19.2-37.5c0.1-0.1,7-13.4,9.8-19.8c2.6-5.8,3.8-8.4,4-8.9
	c0.2,0,0.5-0.2,0.6-0.5c0.1-0.5-0.3-1.1-1.4-1.6l-1.9-1c-1.1-0.5-1.8-0.6-2.1-0.2c-0.2,0.3-0.1,0.6-0.1,0.8
	c-0.3,0.4-1.7,2.9-4.9,8.4c-3.5,6.1-10.3,19.4-10.3,19.6l-19.1,37.3c-16.4-8.3-35-10.5-53.1-6.1c-19.2,4.7-35.5,16.5-45.8,33.4
	c-10.3,16.9-13.4,36.8-8.8,56c4.4,18.4,15.8,34,31.9,43.8c16.2,9.9,35.2,12.8,53.6,8.4c17.6-4.3,32.5-15.1,41.9-30.5
	c9.4-15.5,12.3-33.6,8-51.2c-3.9-16.1-13.6-29.8-27.5-38.9l2.5-4.9c15.4,9.8,26.3,24.9,30.6,42.8c4.6,19.2,1.5,39-8.7,55.8
	c-10.3,16.8-26.5,28.7-45.7,33.3c-20.1,4.9-41,1.6-58.7-9.2c-17.7-10.8-30.1-27.8-35-48c-5.1-21.2-1.7-43.1,9.7-61.6
	c10.1-16.5,25.7-28.9,43.9-34.9c0.1,0.2,0.1,0.3,0.2,0.4c0.1,0.2,0.2,0.3,0.4,0.3c0.3,0,0.6-0.2,0.6-0.2c0.1-0.1,1.5-0.9,2.9-1.3
	c1.5-0.5,2.9-0.6,3.5-0.6c0.3,0,0.5-0.1,0.6-0.2c0.2-0.3,0.1-0.6,0.1-0.6l-0.1-0.3c1.6-0.7,10.2-4.1,10.7-4.3
	c0.6-0.2,0.6-0.6,0.5-0.8L81.5,43c-0.1-0.2-0.3-0.5-0.9-0.4c-0.5,0.1-9.4,1.9-11.3,2.3l-0.1-0.3c0-0.1-0.1-0.4-0.4-0.4
	c-0.2-0.1-0.4,0-0.6,0.1c0,0,0,0-0.1,0c-0.6,0.4-1.8,1-3.2,1.4c-1.3,0.4-2.7,0.5-3.1,0.5l0,0c0,0-0.2,0-0.4,0c-0.1,0-0.1,0-0.2,0.1
	c0,0,0,0-0.1,0c0,0-0.1,0.1-0.1,0.1c0,0.1-0.1,0.2-0.1,0.3c0,0.1,0,0.2,0.1,0.5C41.1,54,24,67.5,13,85.5c-1.2,1.9-2.3,3.9-3.3,5.9
	C0.1,110.3-2.5,132,2.5,152.7c5.3,22,18.9,40.7,38.3,52.5c19.3,11.8,42.1,15.4,64.2,10.1c21.1-5.1,38.9-18.1,50.2-36.6
	C166.4,160.1,169.8,138.4,164.7,117.3z M160.5,0.8l1.9,1c0.9,0.4,1.3,0.9,1.2,1.2c0,0.1-0.2,0.2-0.3,0.2c-0.2-0.3-0.8-0.7-1.6-1.1
	l0,0l0,0c-0.2-0.1-0.4-0.2-0.6-0.3c-0.2-0.1-0.4-0.2-0.6-0.3l0,0l0,0c-0.7-0.4-1.4-0.6-1.8-0.7c0-0.1-0.1-0.3,0-0.4
	C159.1,0.2,159.7,0.3,160.5,0.8z M143.6,29.2c0.1-0.1,6.8-13.5,10.3-19.5c3.2-5.6,4.6-8,4.9-8.4c0.4,0,1.1,0.3,1.7,0.7l0.2,0.1
	c0.1,0,0.2,0.1,0.4,0.2c0.1,0.1,0.3,0.1,0.4,0.2l0.2,0.1c0.6,0.3,1.3,0.7,1.5,1c-0.2,0.4-1.3,3-4,8.9c-2.9,6.4-9.8,19.7-9.8,19.8
	l-39.7,77.7c-0.1,0-0.8-0.3-2.9-1.4c-2.1-1.1-2.8-1.5-2.8-1.5L143.6,29.2z M102.4,109.4c0.9-1.7,1.2-2.2,1.2-2.3
	c0.1,0.1,0.7,0.4,2,1.1l0,0l0.6,0.3c0.1,0,0.1,0.1,0.2,0.1c0.1,0,0.1,0.1,0.2,0.1l0.6,0.3l0,0c1.4,0.7,1.9,0.9,2.1,1l0,0l0,0
	c0,0-0.1,0.4-1.1,2.3c-1,1.9-1.2,3.2-1.3,3.8c-0.6-0.3-2.1-1.1-3.4-1.7c-1.3-0.7-2.9-1.5-3.4-1.8
	C100.5,112.3,101.4,111.3,102.4,109.4z M89.6,149.6c-1.6,3.3-3.3,7.1-3.4,7.2c0,0-0.1,0.1-0.1,0.1l-7-3.6c0-0.1,0-0.1,0-0.1
	c0.1-0.1,2.1-3.8,3.9-7c1.7-3.1,3.3-6,3.5-6.2c0.3-0.5,0.6-1.5,0.7-2.2c0.5,0.3,2.1,1.2,3.3,1.9c1.3,0.7,2.8,1.3,3.4,1.6
	c-0.5,0.5-1.1,1.3-1.4,1.8C92.5,143.4,91.1,146.4,89.6,149.6z M52.4,141.7c2.6,10.9,9.7,15.8,15.4,16.8c4.6,0.8,8.7-0.8,11.3-4.2
	c0.3,0.2,1,0.6,2.3,1.3l1.6,0.8c0.9,0.5,1.6,0.8,2,0.9l0.1,0.1c-4.1,6.1-11,8.9-18.4,7.6c-7.8-1.4-17.3-7.8-20.7-21.8
	c-2.4-10-1.2-20.6,3.5-29.8l0,0c5.8-11.2,16.1-19.4,28.3-22.3c10.8-2.6,21.9-1.2,31.6,3.9l-3,5.9c-8.3-4.4-17.8-5.6-27-3.4
	c-9.5,2.3-17.5,8.2-22.6,16.5C51.7,122.4,50.1,132.2,52.4,141.7z M83.2,156.1l-1.6-0.8c-1.8-0.9-2.2-1.2-2.3-1.3
	c-0.1-0.1-0.1-0.2-0.1-0.3l6.7,3.4c-0.1,0-0.2,0.1-0.3,0C85.4,157.2,84.9,157,83.2,156.1z M90.8,139.3c-1.3-0.7-2.9-1.6-3.4-1.9
	c0.7-0.6,1.9-1.9,2-3.8c0.6,0.3,2,1.2,3.3,1.8c1.2,0.6,2.7,1.3,3.4,1.6c-1.4,1.2-1.8,3-1.9,3.9C93.6,140.7,92.1,140,90.8,139.3z
	 M92.9,135.2c-1.3-0.7-2.8-1.5-3.3-1.8l0,0c0.7-0.6,1.7-1.5,1.9-3.8c0.6,0.3,2,1.2,3.3,1.8c1.3,0.6,2.7,1.3,3.4,1.6
	c-1.7,1.5-1.8,2.8-1.9,3.8l0,0.1C95.7,136.5,94.2,135.9,92.9,135.2z M95,131.1c-1.3-0.7-2.8-1.5-3.3-1.8c0.8-0.8,1.8-1.9,1.9-3.8
	c0.5,0.3,2.1,1.2,3.4,1.8c1.3,0.7,2.8,1.4,3.4,1.6c-1.5,1.2-1.8,2.7-2,3.8C97.8,132.4,96.3,131.7,95,131.1z M97.1,126.9
	c-1.3-0.7-2.9-1.6-3.4-1.8c1-1,1.8-1.9,2-3.8c0.5,0.3,2.1,1.2,3.4,1.8c1.3,0.7,2.8,1.4,3.4,1.7c-1.4,1.3-1.7,2.5-1.9,3.8
	C100,128.3,98.4,127.6,97.1,126.9z M99.2,122.8c-1.3-0.7-2.8-1.5-3.4-1.8c0.5-0.4,1.6-1.6,1.9-3.8c0.5,0.3,2.1,1.1,3.4,1.8
	c1.3,0.7,2.8,1.4,3.4,1.7c-1.7,1.6-1.9,3.2-2,3.8C102.1,124.2,100.5,123.4,99.2,122.8z M101.4,118.6c-1.3-0.7-2.9-1.5-3.4-1.8
	c1-1,1.9-2.2,1.9-3.8c0.5,0.3,2.1,1.1,3.4,1.8c1.3,0.7,2.9,1.4,3.4,1.7c-1.3,1-1.7,2.4-2,3.8C104.2,120.1,102.7,119.3,101.4,118.6z
	 M103.5,106.8c0,0-0.1,0.1-0.1,0.1c0,0-0.2,0.3-1.2,2.3c-1.1,2.2-2.2,3.1-2.5,3.4l-0.1,0.1l0,0.1c0,1.7-1,3-2,4l0,0l0,0.1
	c-0.3,2.8-2,4-2,4l-0.1,0l0,0.1c-0.2,2.1-1,3-2.1,4l-0.1,0l0,0.1c0,2.1-1.1,3.1-2,4l0,0l0,0.1c-0.2,2.3-1.2,3.2-1.9,3.8l-0.2,0.2
	l0,0.1c-0.1,2.1-1.5,3.5-2.1,4l-0.1,0.1l0,0.1c0.1,0.6-0.3,1.6-0.6,2.2c0,0,0,0.1,0,0.1c-0.1,0.3-1.8,3.2-3.5,6.2
	c-1.9,3.4-3.8,6.9-3.9,7c-0.1,0.3-0.1,0.7,0,1c-2.5,3.4-6.6,4.9-11.1,4.1c-5.6-1-12.5-5.9-15.1-16.6c-2.3-9.4-0.7-19.1,4.3-27.4
	c5.1-8.3,13-14.1,22.4-16.4c9.1-2.2,18.6-1,26.8,3.4L103.5,106.8L103.5,106.8z M44.5,143.4c2.7,11.1,9.5,20.5,19.2,26.4
	c9.7,5.9,21.2,7.7,32.3,5.1c10.5-2.5,19.4-9,25.1-18.3c5.6-9.3,7.3-20.1,4.8-30.7c-2-8.4-6.8-15.8-13.5-21.1l3.1-6
	c8.4,6.3,14.4,15.2,16.9,25.5c3,12.2,1,24.9-5.6,35.7c-6.6,10.8-16.9,18.3-29.2,21.3c-12.8,3.1-26,1-37.3-5.8
	c-11.2-6.9-19.1-17.7-22.2-30.5c-3.2-13.4-1.1-27.2,6.1-39C51.3,94.2,62.7,86,76,82.8c12.7-3.1,25.9-1.4,37.4,4.5l-3,5.9
	c-9.8-5.1-21.3-6.8-32.8-4c-11.7,2.8-21.5,10-27.8,20.3C43.6,119.7,41.7,131.7,44.5,143.4z M28.1,147.1
	c3.7,15.4,13.2,28.4,26.7,36.6c13.5,8.2,29.4,10.7,44.8,7c14.7-3.6,27.1-12.6,35-25.6c7.9-12.9,10.3-28.1,6.7-42.8
	c-3.1-13-10.8-24.1-21.7-31.7l1.5-2.9c11.9,8,20.3,20,23.7,34.1c3.8,15.7,1.3,31.9-7.2,45.7c-8.4,13.8-21.7,23.5-37.4,27.3
	c-16.5,4-33.6,1.3-48.1-7.5c-14.5-8.8-24.7-22.8-28.7-39.3c-4.2-17.4-1.4-35.3,7.9-50.5c9.3-15.2,24-25.9,41.3-30.1
	c16.3-4,33.2-2,48,5.5l-2.5,4.9c-13.8-7.1-29.4-9-44.6-5.3c-16.1,3.9-29.7,13.8-38.3,27.9C26.9,114.4,24.2,131,28.1,147.1z
	 M141.1,122.5c7.3,30.2-11.3,60.7-41.5,68c-15.3,3.7-31.1,1.2-44.5-7c-13.4-8.2-22.9-21.1-26.6-36.4c-3.9-16-1.3-32.5,7.3-46.6
	c8.6-14,22.1-23.9,38.1-27.8c15.1-3.7,30.7-1.8,44.4,5.3l-3,5.9c-12.3-6.3-26.3-8-39.8-4.7c-14.3,3.5-26.4,12.3-34,24.8
	c-7.7,12.5-10,27.3-6.5,41.6c3.3,13.6,11.7,25.1,23.6,32.3c11.9,7.3,26,9.5,39.5,6.2c26.6-6.4,43.1-33.4,36.6-60
	c-2.7-11.3-9.4-20.7-18.2-27.1l3-5.9C130.3,98.5,138,109.5,141.1,122.5z M134.3,124.1c6.4,26.5-9.9,53.2-36.4,59.6
	c-13.5,3.3-27.4,1.1-39.3-6.2c-11.8-7.2-20.2-18.6-23.4-32.1c-3.4-14.2-1.1-28.9,6.5-41.3c7.6-12.5,19.6-21.2,33.8-24.6
	c13.5-3.3,27.3-1.6,39.6,4.7l-1.5,2.9C102,81,88.8,79.3,76,82.4C62.5,85.7,51.1,94,43.9,105.8c-7.2,11.8-9.4,25.8-6.1,39.2
	c3.1,12.9,11.1,23.8,22.4,30.7c11.3,6.9,24.6,9,37.5,5.9c12.3-3,22.8-10.6,29.4-21.4c6.6-10.8,8.6-23.6,5.6-35.9
	c-2.6-10.7-8.8-19.6-17-25.7l0.7-1.3C125,103.5,131.6,112.8,134.3,124.1z M151.6,120.2c4.2,17.5,1.4,35.6-8,51
	c-9.4,15.4-24.2,26.2-41.7,30.4c-18.3,4.4-37.2,1.5-53.3-8.4c-16.1-9.8-27.4-25.3-31.8-43.6c-4.6-19.1-1.5-39,8.7-55.8
	C35.9,77,52.1,65.1,71.2,60.5c18-4.3,36.5-2.2,52.8,6.1l-3,5.9C106.1,65,89.2,63,72.8,66.9c-17.4,4.2-32.2,15-41.5,30.3
	c-9.3,15.3-12.2,33.3-8,50.8c4,16.6,14.2,30.6,28.8,39.5c14.6,8.9,31.7,11.6,48.3,7.6c15.8-3.8,29.1-13.6,37.6-27.4
	c8.5-13.9,11-30.2,7.2-46c-3.4-14.1-11.9-26.2-23.9-34.3l3-5.9C138.1,90.5,147.8,104.1,151.6,120.2z M109.7,110l2.5-4.9
	c6.6,5.3,11.3,12.5,13.3,20.9c2.5,10.4,0.8,21.2-4.8,30.4c-5.6,9.2-14.4,15.6-24.9,18.1c-11,2.7-22.4,0.9-32-5
	c-9.7-5.9-16.4-15.2-19.1-26.2c-2.8-11.6-0.9-23.5,5.3-33.7c6.2-10.2,16-17.3,27.6-20.1c11.4-2.8,22.9-1.1,32.6,4l-0.6,1.3
	c-9.5-5-20.7-6.7-31.8-4c-12.3,3-22.7,11.2-28.5,22.5l0,0c-4.7,9.3-6,19.9-3.6,30.1c3.4,14.2,13.1,20.7,20.9,22.1
	c7.6,1.3,14.7-1.6,18.8-7.8c0,0,0,0,0.1,0c0.4,0.1,0.9-0.2,1-0.6c0.1-0.1,1.8-3.8,3.4-7.3c1.5-3.2,2.9-6.2,3-6.5
	c0.3-0.6,1-1.6,1.5-1.9l0.1,0l0-0.1c0-0.8,0.3-2.8,2-4.1l0.1,0l0-0.3c0.1-0.9,0.3-2.2,2-3.8l0,0l0-0.1c0.2-1.2,0.4-2.7,2.1-4l0.1,0
	l0-0.1c0.2-1.5,0.5-2.7,2.1-4l0.1-0.1l0-0.1c0,0-0.1-2.1,2-4l0,0l0-0.1c0.2-1.5,0.7-3,2.1-4l0.1,0l0-0.1c0-0.4,0.2-1.8,1.3-4
	c1-2,1.2-2.3,1.2-2.4C109.7,110.1,109.7,110.1,109.7,110L109.7,110z M80.7,43c0.1,0,0.1,0,0.2,0l0.3,0c0.1,0,0.1,0.1,0.1,0.1
	l1.1,3.8c0,0.1,0,0.1,0,0.2l-0.2,0.2c0,0-0.1,0-0.1,0.1c-0.5,0.2-8.9,3.6-10.7,4.3c-0.3-0.8-0.7-1.9-1-3c-0.3-1.1-0.7-2.4-0.9-3.3
	C71.1,44.9,80.2,43.1,80.7,43z M61.3,46.9c0-0.1,0-0.2,0.1-0.2c0,0,0.4-0.1,0.4-0.1l0,0c0,0,1.7,0,3.2-0.5c1.5-0.5,2.8-1.1,3.4-1.5
	c0.1-0.1,0.4-0.1,0.4-0.1c0.1,0,0.2,0.2,0.2,0.3l0.1,0.4c0.2,1,0.6,2.3,0.9,3.5c0.4,1.3,0.8,2.4,1.1,3.2l0.1,0.4c0,0,0,0.2,0,0.3
	c0,0.1-0.3,0.1-0.4,0.1c-0.7,0-2.1,0.2-3.6,0.6c-1.6,0.5-3,1.3-3,1.4l0,0c0,0-0.5,0.3-0.6,0c-0.1-0.3-0.8-2-1.3-3.8
	C61.8,49.1,61.3,47.3,61.3,46.9z M154.8,178.5c-11.2,18.4-29,31.4-50,36.4c-21.9,5.3-44.6,1.8-63.9-10
	c-19.3-11.8-32.8-30.3-38.1-52.3c-5-20.6-2.4-42.3,7.2-61c1-2,2.1-4,3.3-5.9c11-18,28-31.4,47.9-37.9c0.2,0.7,0.4,1.6,0.7,2.7l0,0
	L62,51c0,0,0,0.1,0,0.1l0,0.1l0,0c0.4,1.1,0.7,2.2,1,2.9c-18.3,6-34,18.5-44.1,35.1C7.5,107.8,4.1,129.8,9.3,151
	c4.9,20.2,17.4,37.3,35.1,48.2c17.8,10.8,38.7,14.1,58.9,9.2c19.3-4.7,35.5-16.5,45.9-33.4c10.3-16.9,13.4-36.8,8.8-56.1
	c-4.3-17.9-15.3-33.1-30.8-43l3-5.9c17.3,10.8,29.4,27.5,34.2,47.3C169.5,138.4,166.1,160.1,154.8,178.5z"/>
</svg>
