<svg id="_x31_" xmlns="http://www.w3.org/2000/svg" viewBox="0 0 73 42.7"><style>.st0{fill:#FFFFFF;}</style><path class="st0" d="M72.4 3.3c-.9-.8-4.4-.7-7.9-.7s-7.1 0-7.9.4c-.8.3-2.5 4.4-4.7 8.6-2.5 4.8-5.6 9.3-7.5 9.3-2.5 0-1.9-7.9-1.8-13.6.1-3.8-.5-5-1.1-5.4-1.3-.9-5-1.8-5-1.8S25.6-.8 24.1 4c2.1.3 5.7-.4 4.3 14.3-.1.7-1.7 6.8-6.8-1.4-1.3-2-6.2-14.3-7.9-14.3C8 2.4 2.4 2.2.4 3.3c-1.8 1 2.5 9.5 9.7 20.8C16 33.3 22.2 40.5 33 42.3c2 .2 7.3.4 9-.4 1.1-.6-.2-8.6 3.6-9.3 1.7-.3 8.3 8.3 10.8 9.3 1.5.6 4.8.8 8.2.7 3.7-.1 7.8.3 8.2-2.2.9-5.5-11.1-12.7-11.5-16.1-.3-2.4 4.4-7 6.8-10.4 3-4 6.2-9.1 4.3-10.6z"/></svg>