<svg id="_x31_" xmlns="http://www.w3.org/2000/svg" viewBox="0 0 66.4 53.1"><style>.st0{fill:#FFFFFF;}</style><path id="XMLID_2_" class="st0" d="M66.4 6.3c-2.4 1.1-5.1 1.8-7.8 2.1 2.8-1.7 5-4.3 6-7.4C62 2.5 59.1 3.7 56 4.3 53.5 1.7 50 .1 46.1.1c-7.5 0-13.6 6-13.6 13.4 0 1.1.1 2.1.3 3.1-11.3-.6-21.3-5.9-28.1-14-1.2 2-1.8 4.3-1.8 6.7 0 4.6 2.4 8.7 6.1 11.2-2.2-.1-4.3-.7-6.2-1.7v.2c0 1.7.3 3.4.9 4.9 1.7 4.2 5.4 7.4 10 8.3-1.1.3-2.3.5-3.6.5-.9 0-1.7-.1-2.6-.2 1.7 5.3 6.8 9.2 12.7 9.3-4.7 3.6-10.5 5.7-16.9 5.7-1.1 0-2.2-.1-3.3-.2 6 3.8 13.2 6 20.9 6 21.3 0 34.4-14.7 37.8-30 .6-2.7.9-5.4.9-8.1v-1.7c2.6-2.2 4.9-4.5 6.8-7.2z"/></svg>