<?xml version="1.0" encoding="utf-8"?>
<!-- Generator: Adobe Illustrator 21.0.0, SVG Export Plug-In . SVG Version: 6.00 Build 0)  -->
<svg version="1.1" id="Слой_1" xmlns="http://www.w3.org/2000/svg" xmlns:xlink="http://www.w3.org/1999/xlink" x="0px" y="0px"
	 viewBox="0 0 219.9 167.1" style="enable-background:new 0 0 219.9 167.1;" xml:space="preserve">
<style type="text/css">
	.st0{fill:#FFFFFF;}
</style>
<g>
	<path class="st0" d="M89.5,46.8h3c1,0,1.7-0.2,2.2-0.6c0.5-0.4,0.8-0.9,1.1-1.5l0.3-0.8L85.3,17h8.6l3.2,9.7l2.7,8.7h0.3l3.3-9.4
		l3.2-9h8.2l-10.2,26.2c-0.8,2.1-1.6,3.8-2.3,5.1c-0.8,1.3-1.6,2.4-2.5,3.1c-0.9,0.7-1.9,1.3-3,1.5c-1.1,0.3-2.4,0.4-3.8,0.4h-3.4
		V46.8z"/>
	<path class="st0" d="M118.8,52.7V17h24.9v7.3h-16.7v28.4H118.8z"/>
	<path class="st0" d="M163.4,45.6h-11.5l-2.1,7.1H141L153.5,17h8.5l12.4,35.7h-8.8L163.4,45.6z M154,38.9h7.4l-0.7-2.4l-2.9-9.8
		h-0.2l-2.9,9.8L154,38.9z"/>
	<path class="st0" d="M204.9,17v35.7h-8.2V39.2h-2.7c-1.5,0-2.7,0.3-3.6,0.8c-0.9,0.5-1.5,1.7-2,3.4l-2.6,9.3h-9.3l3.1-9.5
		c0.4-1.2,0.8-2.4,1.3-3.4c0.5-1,1.3-1.9,2.4-2.5c-1.1-0.3-2-0.9-2.7-1.5c-0.7-0.7-1.3-1.4-1.8-2.3c-0.4-0.9-0.8-1.8-1-2.7
		c-0.2-1-0.3-1.9-0.3-2.7c0-1.3,0.2-2.6,0.6-3.9c0.4-1.3,1.1-2.5,2-3.5c0.9-1,2.1-1.9,3.5-2.5c1.4-0.7,3.1-1,5-1H204.9z M196.7,24.3
		h-6.3c-1.6,0-2.7,0.4-3.3,1.1c-0.7,0.7-1,1.7-1,2.9c0,1.1,0.3,2,1,2.6c0.7,0.6,1.7,1,3.2,1h6.5V24.3z"/>
	<path class="st0" d="M21.3,78.4c-1.2-1-2.4-1.7-3.6-2c-1.2-0.3-2.4-0.5-3.6-0.5c-0.7,0-1.4,0.1-2.1,0.3c-0.7,0.2-1.3,0.5-1.9,1
		c-0.6,0.4-1,1-1.4,1.7c-0.4,0.7-0.5,1.6-0.5,2.6v10.1c0,1,0.2,1.9,0.5,2.6c0.4,0.7,0.8,1.3,1.4,1.7c0.6,0.4,1.2,0.8,1.9,1
		c0.7,0.2,1.4,0.3,2.1,0.3c1.1,0,2.2-0.2,3.4-0.5c1.2-0.3,2.4-1,3.7-2l3.9,6.4c-1.5,1.2-3.2,2.1-5.1,2.7c-2,0.6-4,0.9-6.1,0.9
		c-1.7,0-3.3-0.2-5-0.7c-1.7-0.4-3.2-1.1-4.5-2.1c-1.3-0.9-2.4-2.1-3.2-3.6C0.4,97.1,0,95.4,0,93.4V79.9c0-2,0.4-3.7,1.2-5.1
		c0.8-1.4,1.9-2.6,3.2-3.6c1.3-0.9,2.8-1.7,4.4-2.1c1.6-0.5,3.3-0.7,5-0.7c2.1,0,4.2,0.3,6.2,0.9c2,0.6,3.8,1.5,5.2,2.7L21.3,78.4z"
		/>
	<path class="st0" d="M45.1,76.1v28.3h-8.2V76.1h-9.1v-7.4h26.3v7.4H45.1z"/>
	<path class="st0" d="M85,93.1c0,2-0.4,3.7-1.1,5.1c-0.8,1.5-1.8,2.7-3.1,3.6c-1.3,1-2.8,1.7-4.4,2.2c-1.7,0.5-3.5,0.7-5.3,0.7
		c-1.9,0-3.6-0.2-5.3-0.7c-1.7-0.5-3.2-1.2-4.5-2.2c-1.3-1-2.3-2.2-3.1-3.6c-0.8-1.5-1.1-3.2-1.1-5.1V79.7c0-2,0.4-3.7,1.2-5.1
		c0.8-1.4,1.9-2.6,3.2-3.5c1.3-0.9,2.8-1.6,4.5-2.1c1.7-0.4,3.3-0.7,5-0.7c1.7,0,3.4,0.2,5,0.7c1.7,0.5,3.2,1.2,4.5,2.2
		c1.3,1,2.4,2.2,3.2,3.6C84.6,76.3,85,78,85,80V93.1z M76.7,81.5c0-1-0.2-1.9-0.5-2.6c-0.3-0.7-0.8-1.3-1.3-1.7
		c-0.5-0.4-1.1-0.8-1.8-1c-0.7-0.2-1.4-0.3-2-0.3c-0.7,0-1.4,0.1-2,0.3c-0.7,0.2-1.3,0.5-1.8,1c-0.6,0.4-1,1-1.3,1.7
		c-0.3,0.7-0.5,1.6-0.5,2.6v10.1c0,1,0.2,1.9,0.5,2.6c0.3,0.7,0.8,1.3,1.3,1.7c0.6,0.4,1.2,0.8,1.8,1c0.7,0.2,1.4,0.3,2,0.3
		c0.7,0,1.3-0.1,2-0.3c0.7-0.2,1.3-0.5,1.8-1c0.5-0.4,1-1,1.3-1.7c0.3-0.7,0.5-1.6,0.5-2.6V81.5z"/>
	<path class="st0" d="M149.2,93.1c0,2-0.4,3.7-1.1,5.1c-0.8,1.5-1.8,2.7-3.1,3.6c-1.3,1-2.8,1.7-4.4,2.2c-1.7,0.5-3.5,0.7-5.3,0.7
		c-1.9,0-3.6-0.2-5.3-0.7c-1.7-0.5-3.2-1.2-4.5-2.2c-1.3-1-2.3-2.2-3.1-3.6c-0.8-1.5-1.1-3.2-1.1-5.1V79.7c0-2,0.4-3.7,1.2-5.1
		c0.8-1.4,1.9-2.6,3.2-3.5c1.3-0.9,2.8-1.6,4.5-2.1c1.7-0.4,3.3-0.7,5-0.7c1.7,0,3.4,0.2,5,0.7c1.7,0.5,3.2,1.2,4.5,2.2
		c1.3,1,2.4,2.2,3.2,3.6c0.8,1.5,1.2,3.2,1.2,5.1V93.1z M141,81.5c0-1-0.2-1.9-0.5-2.6c-0.3-0.7-0.8-1.3-1.3-1.7
		c-0.5-0.4-1.1-0.8-1.8-1c-0.7-0.2-1.4-0.3-2-0.3c-0.7,0-1.4,0.1-2,0.3c-0.7,0.2-1.3,0.5-1.8,1c-0.6,0.4-1,1-1.3,1.7
		c-0.3,0.7-0.5,1.6-0.5,2.6v10.1c0,1,0.2,1.9,0.5,2.6c0.3,0.7,0.8,1.3,1.3,1.7c0.6,0.4,1.2,0.8,1.8,1c0.7,0.2,1.4,0.3,2,0.3
		c0.7,0,1.3-0.1,2-0.3c0.7-0.2,1.3-0.5,1.8-1c0.5-0.4,1-1,1.3-1.7c0.3-0.7,0.5-1.6,0.5-2.6V81.5z"/>
	<path class="st0" d="M174.3,104.4V90h-11.4v14.5h-8.2V68.7h8.2v13.8h11.4V68.7h8.3v35.7H174.3z"/>
	<path class="st0" d="M208.9,97.4h-11.5l-2.1,7.1h-8.9L199,68.7h8.5l12.4,35.7h-8.8L208.9,97.4z M199.5,90.6h7.4l-0.7-2.4l-2.9-9.8
		h-0.2l-2.9,9.8L199.5,90.6z"/>
	<path class="st0" d="M67.8,129.1v28.3h-8.2v-28.3h-9.1v-7.4h26.3v7.4H67.8z"/>
	<path class="st0" d="M81.5,121.7h24.9v7.3H89.7v6.7H104v7.3H89.7v7.1h16.7v7.3H81.5V121.7z"/>
	<path class="st0" d="M111.5,121.7H135v7.3h-15.2v5.8h7.3c3.7,0,6.6,1,8.7,3s3.2,4.8,3.2,8.3c0,1.3-0.2,2.6-0.6,4
		c-0.4,1.4-1.1,2.6-2,3.7c-0.9,1.1-2.1,2-3.6,2.7c-1.5,0.7-3.3,1-5.4,1h-15.8V121.7z M119.7,150.1h6.3c1.5,0,2.7-0.4,3.6-1.2
		c0.9-0.8,1.3-1.7,1.3-2.8s-0.4-2.1-1.3-2.8c-0.9-0.8-2.1-1.2-3.6-1.2h-6.3V150.1z"/>
	<g>
		<polygon class="st0" points="57.1,33 57.1,52.7 65.4,52.7 65.4,42.3 		"/>
		<path class="st0" d="M71.8,39.7h0.7c1.8,0,3.5-0.3,4.9-1c1.4-0.6,2.6-1.5,3.6-2.6c1-1.1,1.7-2.3,2.2-3.6c0.5-1.3,0.8-2.7,0.8-4.2
			c0-1.5-0.2-2.9-0.6-4.2c-0.4-1.3-1.1-2.6-2-3.6c-0.9-1.1-2.1-1.9-3.5-2.6c-1.4-0.6-3.1-1-5.1-1H57.1v6.2L71.8,39.7z M65.4,24.3
			h6.1c1.6,0,2.7,0.4,3.3,1.2c0.6,0.8,1,1.7,1,2.9c0,1.1-0.3,2.1-1,2.9c-0.7,0.8-1.8,1.2-3.3,1.2h-6.1V24.3z"/>
	</g>
	<g>
		<path class="st0" d="M151.8,129.9c0.7-0.6,1.7-0.9,3.1-0.9h6.3v7.7h-3.3l11.6,13.1v-28h-16.3c-1.9,0-3.6,0.3-5,1
			c-0.7,0.3-1.2,0.7-1.8,1L151.8,129.9z"/>
		<path class="st0" d="M142.5,129.2c-0.3,1.1-0.5,2.3-0.5,3.4c0,0.9,0.1,1.8,0.3,2.7c0.2,1,0.5,1.9,1,2.7c0.4,0.9,1,1.6,1.8,2.3
			c0.7,0.7,1.6,1.2,2.7,1.5c-1.1,0.6-1.9,1.5-2.4,2.5c-0.5,1-0.9,2.2-1.3,3.4l-3.1,9.5h9.3l2.6-9.3c0.5-1.8,1.2-2.9,2-3.4
			c0.3-0.2,0.6-0.3,1-0.4L142.5,129.2z"/>
		<polygon class="st0" points="161.2,150.2 161.2,157.4 167.5,157.4 		"/>
	</g>
	<g>
		<path class="st0" d="M104,76h0.8c1.6,0,2.7,0.4,3.3,1.2c0.6,0.8,1,1.7,1,2.9c0,0.5-0.1,1-0.2,1.4l5.6,6.3c0.9-1,1.7-2.2,2.1-3.5
			c0.5-1.3,0.8-2.7,0.8-4.2c0-1.5-0.2-2.9-0.6-4.2c-0.4-1.3-1.1-2.6-2-3.6c-0.9-1.1-2.1-1.9-3.5-2.6c-1.4-0.6-3.1-1-5.1-1h-8.6
			L104,76z"/>
		<path class="st0" d="M102.5,84.1h-3.7v-4.2l-8.2-9.3v33.8h8.2v-13h7.1c1,0,2-0.1,2.8-0.3L102.5,84.1z"/>
	</g>
	<path class="st0" d="M48.7,23.5L42.9,17H23.8L23,31.8c-0.1,1.9-0.3,3.5-0.4,4.9c-0.2,1.4-0.5,2.7-0.8,3.8c-0.3,1.1-0.8,2-1.3,2.9
		c-0.5,0.8-1.2,1.5-2,2.1h-2.6v14.3h7.4v-7.1h21.4v7.1H52V45.5h-3.2V23.5z M40.7,45.5H27.8c0.6-1,1.1-2,1.5-3.1
		c0.4-1.1,0.6-2.3,0.9-3.5c0.2-1.2,0.3-2.4,0.4-3.6c0.1-1.2,0.1-2.3,0.2-3.4l0.4-7.7h9.5V45.5z"/>
	<polygon class="st0" points="180.9,166.5 32.4,0 180.2,167.1 	"/>
</g>
</svg>
