<?xml version="1.0" encoding="utf-8"?>
<!-- Generator: Adobe Illustrator 19.0.0, SVG Export Plug-In . SVG Version: 6.00 Build 0)  -->
<svg version="1.1" id="Слой_2" xmlns="http://www.w3.org/2000/svg" xmlns:xlink="http://www.w3.org/1999/xlink" x="0px" y="0px"
	 viewBox="496.4 160.4 1280.1 206.1" style="enable-background:new 496.4 160.4 1280.1 206.1;" xml:space="preserve">
<style type="text/css">
	.st0{fill:none;stroke:#FFFFFF;stroke-miterlimit:10;}
	.st1{stroke:#FFFFFF;stroke-miterlimit:10;}
</style>
<path d="M496.4,299.6c93-16.6,144.1-8,213.1-3s126-11.6,174-15s146,12.9,146,12.9l19.3-0.1c7.3,0.9,25.4-3.5,25.4-3.5l20.5-0.5
	c82.4-3.9,145.8,1.1,193.8,9.3c48,8.1,89-2.5,110-7.2s61-14.7,75-19.7s68,5,107,0s62-7,99-13s97-7.3,97-7.3v114H496.4V299.6z"/>
<path d="M1048.8,294.4c7.3,0.9,25.4-3.5,25.4-3.5l20.5-0.5c82.4-3.9,145.8,1.1,193.8,9.3c48,8.1,89-2.5,110-7.2s61-14.7,75-19.7
	s68,5,107,0s62-7,99-13s97-7.3,97-7.3v-40c0,0-46.3-0.1-77-4.5s-24.7-11.4-102,1.9s-62,5.8-145.3-14.2s-188-7.7-228-22.1
	s-108-3.6-135.8-12.7l-62.2,12.2c-45.6,9.6-119.8,54.6-145.2,47.6s-32.8-3.9-55.4,0c-15.8,2.7-43.9,16.7-66,19
	c-37.3,4-94.8,5.4-113.5,9.5c-18.7,4-104.7,44-149.7,42.9v7.5c93-16.6,144.1-8,213.1-3s126-11.6,174-15s146,12.9,146,12.9
	L1048.8,294.4z"/>
<path class="st0" d="M1776.5,212.5c0,0-46.3-0.1-77-4.5s-24.7-11.4-102,1.9s-62,5.8-145.3-14.2s-188-7.7-228-22.1
	s-108-3.6-135.8-12.7l-62.2,12.2c-45.6,9.6-119.8,54.6-145.2,47.6s-32.8-3.9-55.4,0c-15.8,2.7-43.9,16.7-66,19
	c-37.3,4-94.8,5.4-113.5,9.5c-18.7,4-104.7,44-149.7,42.9"/>
<path class="st0" d="M496.4,299.6c93-16.6,144.1-8,213.1-3s126-11.6,174-15s146,12.9,146,12.9l19.3-0.1c7.3,0.9,25.4-3.5,25.4-3.5
	l20.5-0.5c82.4-3.9,145.8,1.1,193.8,9.3c48,8.1,89-2.5,110-7.2s61-14.7,75-19.7s68,5,107,0s62-7,99-13s97-7.3,97-7.3"/>
<path class="st1" d="M496.5,180.4c0,0,38.2,0.8,89.9,15.2c51.7,11.2,190.9,26.7,220.4,30.6c0,0-25.8,10.2-36.2,12.6
	c-10.5,2.5-78,7-124.5,13.4c-37.4,6.8-99.4,39.9-149.7,39.9"/>
</svg>
