<?xml version="1.0" encoding="utf-8"?>
<!-- Generator: Adobe Illustrator 21.0.0, SVG Export Plug-In . SVG Version: 6.00 Build 0)  -->
<svg version="1.1" id="Слой_1" xmlns="http://www.w3.org/2000/svg" xmlns:xlink="http://www.w3.org/1999/xlink" x="0px" y="0px"
	 viewBox="0 0 1920 798" style="enable-background:new 0 0 1920 798;" xml:space="preserve">
<style type="text/css">
	.st0{fill:#010101;stroke:#FFFFFF;stroke-miterlimit:10;}
</style>
<path class="st0" d="M-8.4,230.2L220,256.4c0,0,301.4-30.9,311.3-24.6c10,6.3,163.2,5.1,163.2,5.1s55.7,6.2,130.6-11.3
	c86-20.1,199.4-64.1,315.4-64.3c11.9,0,34.1,1.6,54-2c19.9-3.6,45.8-0.4,64.5-2.4s51.9-12.5,64.7-15.4c12.8-2.8,40.2,0,45.6,0
	s15-2.8,27.4-3.8c12.4-1,25.2-4.5,33.9-6.5c8.7-2,23.1-7.7,28.6-8.1c5.5-0.4,14.6-1.4,25.6,0.6c11,2,13.4-1,22.1-2.2
	s7.7,0.6,12.2,0.9c4.5,0.3,14.6-1.7,19.7-3.8s10.1,1.4,15.8,1.6c5.7,0.2,9.7-2.6,16.8-2.6c7.1,0,13,3,18.3,1.2s6.9,0,11.6,0
	c4.7,0,10.5-4.9,13.4-4.9c2.8,0,8.5,6.7,11.2,8.1c2.6,1.4,18.9-2,28.6-0.2c4.9,0.9,17-10.1,35.2-18.6c8.4-3.9,21.8-3.9,29.6-8
	c9.2-4.8,17.2-9.4,22.4-12.9c11-7.3,29.8-13.7,48.6-20.4c3.9-1.4,7.8-2.8,11.6-4.2c16.2-6.1,29.4-14.4,44.2-15.6
	c18.6-1.5,24.5-13.5,36.8-20.8C1903.3,9.1,1924.3,0,1924.3,0v803.3H-8.4V230.2z"/>
</svg>
