<?xml version="1.0" encoding="utf-8"?>
<!-- Generator: Adobe Illustrator 19.0.0, SVG Export Plug-In . SVG Version: 6.00 Build 0)  -->
<svg version="1.1" id="Layer_1" xmlns="http://www.w3.org/2000/svg" xmlns:xlink="http://www.w3.org/1999/xlink" x="0px" y="0px"
	 viewBox="0 0 205.5 133.1" style="enable-background:new 0 0 205.5 133.1;" xml:space="preserve">
<style type="text/css">
	.st0{clip-path:url(#SVGID_2_);fill:none;stroke:#FFFFFF;stroke-miterlimit:10;}
</style>
<g>
	<defs>
		<rect id="SVGID_1_" width="205.5" height="133.1"/>
	</defs>
	<clipPath id="SVGID_2_">
		<use xlink:href="#SVGID_1_"  style="overflow:visible;"/>
	</clipPath>
	<circle class="st0" cx="192.1" cy="88" r="12.9"/>
	<circle class="st0" cx="47.8" cy="104.5" r="12.9"/>
	<circle class="st0" cx="133.4" cy="121.3" r="11.3"/>
	<circle class="st0" cx="76.6" cy="21.1" r="20.6"/>
	<path class="st0" d="M97.1,19.6c2.6-0.7,5.4-1,8.2-1c18.3,0,33.2,14.9,33.2,33.2c0,18.3-14.9,33.2-33.2,33.2S72.1,70.1,72.1,51.7
		c0-3.6,0.6-7.1,1.6-10.3"/>
	<circle class="st0" cx="162.9" cy="37.7" r="18"/>
	<circle class="st0" cx="18.5" cy="53.9" r="18"/>
	<line class="st0" x1="34.4" y1="45.3" x2="61.9" y2="29.4"/>
	<line class="st0" x1="44.5" y1="99.4" x2="27.3" y2="69.6"/>
	<line class="st0" x1="127.8" y1="120.1" x2="60.6" y2="107.1"/>
	<line class="st0" x1="180.9" y1="94.4" x2="143.4" y2="116"/>
	<line class="st0" x1="172.1" y1="53.2" x2="188.1" y2="81"/>
	<line class="st0" x1="96.8" y1="25" x2="148.3" y2="34.9"/>
	<line class="st0" x1="50.4" y1="98.4" x2="69.9" y2="40.5"/>
	<line class="st0" x1="135.1" y1="115.4" x2="156.3" y2="54.5"/>
	<line class="st0" x1="85.8" y1="39.4" x2="130.6" y2="116"/>
	<line class="st0" x1="54.1" y1="100.8" x2="147.3" y2="46.7"/>
</g>
</svg>
