<?xml version="1.0" encoding="utf-8"?>
<!-- Generator: Adobe Illustrator 19.0.0, SVG Export Plug-In . SVG Version: 6.00 Build 0)  -->
<svg version="1.1" id="Layer_1" xmlns="http://www.w3.org/2000/svg" xmlns:xlink="http://www.w3.org/1999/xlink" x="0px" y="0px"
	 viewBox="0 0 83 139.3" style="enable-background:new 0 0 83 139.3;" xml:space="preserve">
<style type="text/css">
	.st0{fill:#010101;stroke:#FFFFFF;stroke-width:2;stroke-miterlimit:10;}
</style>
<g id="XMLID_28_">
	<path id="XMLID_34_" class="st0" d="M22,136.8c-3.2-9.8-5.6-15.1-10.9-26.2S1.6,97.5,1,87.8s3.2-19.1,4.9-29.5s0.8-15.2,6.5-21.1
		s9.8-9.9,14.7-16.9S37.5,6.9,44.2,4s10.2-3.3,11.6-2.9s2.5,9.8,7.3,15.7S72.6,26.9,75.8,35c3.2,8.1,7.1,19.7,6.1,25.8
		c-1.1,6.1,1.7,17.6-2.5,28.9c-4.2,11.3-13.9,23.9-25.7,29.2c-11.7,5.4-16.8,7.8-20.3,11.3c-3.5,3.5-9.1,7.2-9.1,7.2"/>
	<path id="XMLID_33_" class="st0" d="M51.8,19.8c-1.3,9-5.6,16.2-5.6,23.2c0,6.9-0.8,11.9-3,20.8c-2.1,8.9-7.9,23.5-9.3,33
		s-6.4,17.1-7.3,25S22.7,139,22.7,139"/>
	<path id="XMLID_32_" class="st0" d="M31.6,38.3c0.7,7.1,11.6,20.2,11.7,25.5"/>
	<path id="XMLID_31_" class="st0" d="M20.1,67.4c3.6,8.8,13.9,17.1,15,24.1"/>
	<path id="XMLID_30_" class="st0" d="M69,52.2c-7.6,7.6-24.8,17.1-29.5,24.4"/>
	<path id="XMLID_29_" class="st0" d="M61.2,89.4c-9,6-29.1,15-30.8,19.8"/>
</g>
</svg>
