<?xml version="1.0" encoding="utf-8"?>
<!-- Generator: Adobe Illustrator 19.0.0, SVG Export Plug-In . SVG Version: 6.00 Build 0)  -->
<svg version="1.1" id="Layer_1" xmlns="http://www.w3.org/2000/svg" xmlns:xlink="http://www.w3.org/1999/xlink" x="0px" y="0px"
	 viewBox="499 77.4 1280 413.5" style="enable-background:new 499 77.4 1280 413.5;" xml:space="preserve">
<style type="text/css">
	.st0{fill:none;stroke:#FFFFFF;stroke-miterlimit:10;}
</style>
<path d="M648.7,205.2c28-3.7,48-15.6,72-15.6s53.3-3.8,78-8c24.7-4.2,113.6,7.1,136.9-1.4s56.8-7.1,94.9-14.7
	c38.1-7.6,203.2-13.6,240.5-19.9s118.6-7.8,143.3-8.7c24.7-0.8,79.3-24.2,108.7-31.8c29.3-7.6,67-26.7,93-26.7s73.5,20.4,105,13.8
	c23.4-4.9,58,0,58,0v399.2H499v-276C499,215.4,620.7,208.9,648.7,205.2z"/>
<path class="st0" d="M499,215.4c0,0,121.7-6.5,149.7-10.2c28-3.7,48-15.6,72-15.6s53.3-3.8,78-8c24.7-4.2,113.6,7.1,136.9-1.4
	s56.8-7.1,94.9-14.7c38.1-7.6,203.2-13.6,240.5-19.9s118.6-7.8,143.3-8.7c24.7-0.8,79.3-24.2,108.7-31.8c29.3-7.6,67-26.7,93-26.7
	s73.5,20.4,105,13.8c23.4-4.9,58,0,58,0"/>
<path class="st0" d="M499,254.2c26.3,2.1,154.4,28.6,228.3,24.8c30.3-1.6,78.5-13.4,78.5-13.4"/>
</svg>
